999
FreeCAD v0.19 
  0
SECTION
  2
HEADER
  9
$ACADVER
  1
AC1014
  9
$ACADMAINTVER
 70
     9
  9
$DWGCODEPAGE
  3
ANSI_1252
  9
$TEXTSTYLE
  7
STANDARD
  9
$DIMSTYLE
  2
STANDARD
  9
$DIMTXSTY
  7
STANDARD
  9
$CMLSTYLE
  2
STANDARD
  9
$PEXTMAX
 10
50
 20
50
 30
50
  9
$PEXTMIN
 10
0
 20
0
 30
0
  9
$HANDSEED
  5
FFFF
  0
ENDSEC
  0
SECTION
  2
CLASSES
  0
CLASS
  1
ACDBDICTIONARYWDFLT
  2
AcDbDictionaryWithDefault
  3
ObjectDBX Classes
 90
        0
280
     0
281
     0
  0
CLASS
  1
XRECORD
  2
AcDbXrecord
  3
ObjectDBX Classes
 90
        0
280
     0
281
     0
  0
CLASS
  1
LWPOLYLINE
  2
AcDbPolyline
  3
ObjectDBX Classes
 90
        0
280
     0
281
     1
  0
ENDSEC
  0
SECTION
  2
TABLES
  0
TABLE
  2
VPORT
  5
20
330
0
100
AcDbSymbolTable
 70
     1
  0
VPORT
  5
21
330
20
100
AcDbSymbolTableRecord
100
AcDbViewportTableRecord
  2
*ACTIVE
 70
     0
  0
ENDTAB
  0
TABLE
  2
LTYPE
  5
22
330
0
100
AcDbSymbolTable
 70
     1
  0
LTYPE
  5
23
330
21
100
AcDbSymbolTableRecord
100
AcDbLinetypeTableRecord
  2
BYBLOCK
 70
     0
  3

 72
    65
 73
     0
 40
0.0
  0
LTYPE
  5
24
330
21
100
AcDbSymbolTableRecord
100
AcDbLinetypeTableRecord
  2
BYLAYER
 70
     0
  3

 72
    65
 73
     0
 40
0.0
  0
LTYPE
  5
25
330
21
100
AcDbSymbolTableRecord
100
AcDbLinetypeTableRecord
  2
CONTINUOUS
 70
     0
  3
Solid line
 72
    65
 73
     0
 40
0.0
  0
ENDTAB
  0
TABLE
  2
LAYER
  5
B3A
330
0
100
AcDbSymbolTable
 70
3
  0
LAYER
  5
B3B
330
B3A
100
AcDbSymbolTableRecord
100
AcDbLayerTableRecord
  2
0
 70
   0
 62
   7
  6
CONTINUOUS
  0
LAYER
  5
B3C
330
B3A
100
AcDbSymbolTableRecord
100
AcDbLayerTableRecord
  2
none
 70
    0
 62
    7
  6
CONTINUOUS
  0
LAYER
  5
B3D
330
B3A
100
AcDbSymbolTableRecord
100
AcDbLayerTableRecord
  2
Fillet019029001
 70
    0
 62
    7
  6
CONTINUOUS
  0
ENDTAB
  0
TABLE
  2
STYLE
  5
70
330
0
100
AcDbSymbolTable
 70
     2
  0
STYLE
  5
71
330
70
100
AcDbSymbolTableRecord
100
AcDbTextStyleTableRecord
  2
STANDARD
 70
     0
 40
0.0
 41
1.0
 50
0.0
 71
     0
 42
2.5
  3
arial.ttf
  4

  0
STYLE
  5
72
330
70
100
AcDbSymbolTableRecord
100
AcDbTextStyleTableRecord
  2
ANNOTATIVE
 70
     0
 40
0.0
 41
1.0
 50
0.0
 71
     0
 42
2.5
  3
arial.ttf
  4

  0
ENDTAB
  0
TABLE
  2
VIEW
  5
73
330
0
100
AcDbSymbolTable
 70
     0
  0
ENDTAB
  0
TABLE
  2
UCS
  5
74
330
0
100
AcDbSymbolTable
 70
     0
  0
ENDTAB
  0
TABLE
  2
APPID
  5
75
330
0
100
AcDbSymbolTable
 70
     2
  0
APPID
  5
76
330
75
100
AcDbSymbolTableRecord
100
AcDbRegAppTableRecord
  2
ACAD
 70
     0
  0
APPID
  5
77
330
75
100
AcDbSymbolTableRecord
100
AcDbRegAppTableRecord
  2
ACADANNOTATIVE
 70
     0
  0
ENDTAB
  0
TABLE
  2
DIMSTYLE
  5
78
330
0
100
AcDbSymbolTable
 70
     2
  0
DIMSTYLE
105
79
330
78
100
AcDbSymbolTableRecord
100
AcDbDimStyleTableRecord
  2
STANDARD
 70
     0
  3

  4

  5

  6

  7

 40
0.0
 41
2.5
 42
0.625
 43
3.75
 44
1.25
 45
0.0
 46
0.0
 47
0.0
 48
0.0
140
2.5
141
2.5
142
0.0
143
0.03937007874016
144
1.0
145
0.0
146
1.0
147
0.625
 71
     0
 72
     0
 73
     0
 74
     0
 75
     0
 76
     0
 77
     1
 78
     8
170
     0
171
     3
172
     1
173
     0
174
     0
175
     0
176
     0
177
     0
178
     0
270
     2
271
     2
272
     2
273
     2
274
     3
340
71
275
     0
280
     0
281
     0
282
     0
283
     0
284
     8
285
     0
286
     0
287
     3
288
     0
  0
ENDTAB
  0
TABLE
  2
BLOCK_RECORD
  5
A01
330
0
100
AcDbSymbolTable
  70
5
  0
BLOCK_RECORD
  5
A02
330
A01
100
AcDbSymbolTableRecord
100
AcDbBlockTableRecord
  2
*MODEL_SPACE
  0
BLOCK_RECORD
  5
A03
330
A01
100
AcDbSymbolTableRecord
100
AcDbBlockTableRecord
  2
*PAPER_SPACE
  0
ENDTAB
  0
ENDSEC
  0
SECTION
  2
BLOCKS
  0
BLOCK
  5
A04
330
A02
100
AcDbEntity
  8
0
100
AcDbBlockBegin
  2
*MODEL_SPACE
 70
   0
 10
0
 20
0
 30
0
  3
*MODEL_SPACE
  1
 
  0
ENDBLK
  5
A05
330
A02
100
AcDbEntity
  8
0
100
AcDbBlockEnd
  0
BLOCK
  5
A06
330
A03
100
AcDbEntity
 67
1
  8
0
100
AcDbBlockBegin
  2
*PAPER_SPACE
 70
   0
 10
0
 20
0
 30
0
  3
*PAPER_SPACE
  1
 
  0
ENDBLK
  5
A07
330
A03
100
AcDbEntity
 67
    1
  8
0
100
AcDbBlockEnd
  0
ENDSEC
  0
SECTION
  2
ENTITIES
  0
LINE
  5
A08
330
A02
100
AcDbEntity
  8
Fillet019029001
100
AcDbLine
 10
21.9025
 20
-23.9123
 30
9.08217e-15
 11
63.0897
 21
-0.517048
 31
1.82276e-14
  0
LINE
  5
A09
330
A02
100
AcDbEntity
  8
Fillet019029001
100
AcDbLine
 10
21.9025
 20
-23.9123
 30
3.25522e-14
 11
21.9025
 21
-23.9123
 31
-3
  0
LINE
  5
A0A
330
A02
100
AcDbEntity
  8
Fillet019029001
100
AcDbLine
 10
21.9025
 20
-23.9123
 30
-3
 11
63.0897
 21
-0.517048
 31
-3
  0
LINE
  5
A0B
330
A02
100
AcDbEntity
  8
Fillet019029001
100
AcDbLine
 10
63.0897
 20
-0.517048
 30
3.60576e-14
 11
63.0897
 21
-0.517048
 31
-3
  0
LINE
  5
A0C
330
A02
100
AcDbEntity
  8
Fillet019029001
100
AcDbLine
 10
21.9025
 20
-23.9123
 30
9.08217e-15
 11
63.0897
 21
-0.517048
 31
1.82276e-14
  0
ARC
  5
A0D
330
A02
100
AcDbEntity
  8
Fillet019029001
100
AcDbCircle
 10
14
 20
-10
 30
7.32747e-15
 40
16
100
AcDbArc
 50
-103.681
 51
-60.4025
  0
LINE
  5
A0E
330
A02
100
AcDbEntity
  8
Fillet019029001
100
AcDbLine
 10
10.2157
 20
-25.546
 30
2.50102e-14
 11
-29
 21
-16
 31
-3.07061e-15
  0
LINE
  5
A0F
330
A02
100
AcDbEntity
  8
Fillet019029001
100
AcDbLine
 10
-29
 20
-16
 30
-2.22045e-15
 11
-29
 21
58
 31
-2.22045e-15
  0
LINE
  5
A10
330
A02
100
AcDbEntity
  8
Fillet019029001
100
AcDbLine
 10
-27
 20
58
 30
-1.77636e-15
 11
-29
 21
58
 31
-2.22045e-15
  0
ARC
  5
A11
330
A02
100
AcDbEntity
  8
Fillet019029001
100
AcDbCircle
 10
-27
 20
60
 30
-1.67364e-14
 40
2
100
AcDbArc
 50
-90
 51
0
  0
LINE
  5
A12
330
A02
100
AcDbEntity
  8
Fillet019029001
100
AcDbLine
 10
-25
 20
60
 30
-1.33227e-15
 11
-25
 21
66
 31
-1.33227e-15
  0
ARC
  5
A13
330
A02
100
AcDbEntity
  8
Fillet019029001
100
AcDbCircle
 10
-27
 20
66
 30
-1.80564e-14
 40
2
100
AcDbArc
 50
0
 51
90
  0
LINE
  5
A14
330
A02
100
AcDbEntity
  8
Fillet019029001
100
AcDbLine
 10
-27
 20
68
 30
-1.77636e-15
 11
-29
 21
68
 31
-2.22045e-15
  0
LINE
  5
A15
330
A02
100
AcDbEntity
  8
Fillet019029001
100
AcDbLine
 10
-29
 20
68
 30
-2.22045e-15
 11
-29
 21
84
 31
-2.22045e-15
  0
LINE
  5
A16
330
A02
100
AcDbEntity
  8
Fillet019029001
100
AcDbLine
 10
-29
 20
84
 30
-2.22045e-15
 11
-28.6476
 21
84
 31
-2.14219e-15
  0
LINE
  5
A17
330
A02
100
AcDbEntity
  8
Fillet019029001
100
AcDbLine
 10
-28.6476
 20
84
 30
-2.14219e-15
 11
-12.1776
 21
70.1801
 31
1.51487e-15
  0
LINE
  5
A18
330
A02
100
AcDbEntity
  8
Fillet019029001
100
AcDbLine
 10
-13.1418
 20
69.031
 30
1.30078e-15
 11
-12.1776
 21
70.1801
 31
1.51487e-15
  0
LINE
  5
A19
330
A02
100
AcDbEntity
  8
Fillet019029001
100
AcDbLine
 10
-13.1418
 20
69.031
 30
1.30078e-15
 11
-16.5358
 21
71.8789
 31
5.47158e-16
  0
ARC
  5
A1A
330
A02
100
AcDbEntity
  8
Fillet019029001
100
AcDbCircle
 10
-17.5
 20
70.7298
 30
3.33067e-16
 40
1.5
100
AcDbArc
 50
50
 51
180
  0
LINE
  5
A1B
330
A02
100
AcDbEntity
  8
Fillet019029001
100
AcDbLine
 10
-19
 20
67.7298
 30
0
 11
-19
 21
70.7298
 31
0
  0
ARC
  5
A1C
330
A02
100
AcDbEntity
  8
Fillet019029001
100
AcDbCircle
 10
-17.5
 20
67.7298
 30
3.33067e-16
 40
1.5
100
AcDbArc
 50
180
 51
-90
  0
LINE
  5
A1D
330
A02
100
AcDbEntity
  8
Fillet019029001
100
AcDbLine
 10
-12.9282
 20
66.2298
 30
1.34821e-15
 11
-17.5
 21
66.2298
 31
3.33067e-16
  0
ARC
  5
A1E
330
A02
100
AcDbEntity
  8
Fillet019029001
100
AcDbCircle
 10
-12.9282
 20
67.7298
 30
1.34821e-15
 40
1.5
100
AcDbArc
 50
-90
 51
-40
  0
LINE
  5
A1F
330
A02
100
AcDbEntity
  8
Fillet019029001
100
AcDbLine
 10
-11.7791
 20
66.7657
 30
1.60336e-15
 11
-10.2625
 21
68.5731
 31
1.94011e-15
  0
LINE
  5
A20
330
A02
100
AcDbEntity
  8
Fillet019029001
100
AcDbLine
 10
12.7709
 20
49.2458
 30
7.05455e-15
 11
-10.2625
 21
68.5731
 31
1.94011e-15
  0
ARC
  5
A21
330
A02
100
AcDbEntity
  8
Fillet019029001
100
AcDbCircle
 10
11.4853
 20
47.7137
 30
2.97909e-15
 40
2
100
AcDbArc
 50
7.9582
 51
50
  0
LINE
  5
A22
330
A02
100
AcDbEntity
  8
Fillet019029001
100
AcDbLine
 10
19.311
 20
6.18002
 30
8.50675e-15
 11
13.466
 21
47.9906
 31
7.20891e-15
  0
ARC
  5
A23
330
A02
100
AcDbEntity
  8
Fillet019029001
100
AcDbCircle
 10
21.2918
 20
6.45692
 30
1.63966e-14
 40
2
100
AcDbArc
 50
-172.042
 51
-113.897
  0
ARC
  5
A24
330
A02
100
AcDbEntity
  8
Fillet019029001
100
AcDbCircle
 10
14
 20
-10
 30
7.32747e-15
 40
16
100
AcDbArc
 50
34.9921
 51
66.1028
  0
ARC
  5
A25
330
A02
100
AcDbEntity
  8
Fillet019029001
100
AcDbCircle
 10
28.7462
 20
0.32233
 30
2.10418e-14
 40
2
100
AcDbArc
 50
-145.008
 51
-70.4025
  0
LINE
  5
A26
330
A02
100
AcDbEntity
  8
Fillet019029001
100
AcDbLine
 10
29.417
 20
-1.56181
 30
1.07507e-14
 11
62.0571
 21
10.0592
 31
1.79983e-14
  0
ARC
  5
A27
330
A02
100
AcDbEntity
  8
Fillet019029001
100
AcDbCircle
 10
62.7279
 20
8.17504
 30
3.43372e-14
 40
2
100
AcDbArc
 50
-5.14468
 51
109.597
  0
LINE
  5
A28
330
A02
100
AcDbEntity
  8
Fillet019029001
100
AcDbLine
 10
64.0939
 20
1.04264
 30
1.84505e-14
 11
64.7199
 21
7.9957
 31
1.85895e-14
  0
ARC
  5
A29
330
A02
100
AcDbEntity
  8
Fillet019029001
100
AcDbCircle
 10
62.1019
 20
1.22199
 30
3.55882e-14
 40
2
100
AcDbArc
 50
-60.4025
 51
-5.14468
  0
CIRCLE
  5
A2A
330
A02
100
AcDbEntity
  8
Fillet019029001
100
AcDbCircle
 10
-11
 20
47
 40
4.5
  0
CIRCLE
  5
A2B
330
A02
100
AcDbEntity
  8
Fillet019029001
100
AcDbCircle
 10
-24
 20
28
 40
1.5
  0
CIRCLE
  5
A2C
330
A02
100
AcDbEntity
  8
Fillet019029001
100
AcDbCircle
 10
7.5
 20
38.5
 40
1.5
  0
CIRCLE
  5
A2D
330
A02
100
AcDbEntity
  8
Fillet019029001
100
AcDbCircle
 10
61.0239
 20
5.97611
 40
1.5
  0
CIRCLE
  5
A2E
330
A02
100
AcDbEntity
  8
Fillet019029001
100
AcDbCircle
 10
-24
 20
75
 40
1.5
  0
CIRCLE
  5
A2F
330
A02
100
AcDbEntity
  8
Fillet019029001
100
AcDbCircle
 10
14
 20
-10
 40
1.5
  0
CIRCLE
  5
A30
330
A02
100
AcDbEntity
  8
Fillet019029001
100
AcDbCircle
 10
-19
 20
47
 40
1.5
  0
CIRCLE
  5
A31
330
A02
100
AcDbEntity
  8
Fillet019029001
100
AcDbCircle
 10
-11
 20
56.5
 40
1.5
  0
CIRCLE
  5
A32
330
A02
100
AcDbEntity
  8
Fillet019029001
100
AcDbCircle
 10
-3
 20
47
 40
1.5
  0
CIRCLE
  5
A33
330
A02
100
AcDbEntity
  8
Fillet019029001
100
AcDbCircle
 10
-24
 20
-7
 40
1.5
  0
CIRCLE
  5
A34
330
A02
100
AcDbEntity
  8
Fillet019029001
100
AcDbCircle
 10
-11
 20
37.5
 40
1.5
  0
LINE
  5
A35
330
A02
100
AcDbEntity
  8
Fillet019029001
100
AcDbLine
 10
4.45548
 20
4.10326
 30
5.20816e-15
 11
0.908011
 21
29.4791
 31
4.42047e-15
  0
ARC
  5
A36
330
A02
100
AcDbEntity
  8
Fillet019029001
100
AcDbCircle
 10
-1.07273
 20
29.2022
 30
1.50065e-15
 40
2
100
AcDbArc
 50
7.9582
 51
111.031
  0
ARC
  5
A37
330
A02
100
AcDbEntity
  8
Fillet019029001
100
AcDbCircle
 10
14
 20
-10
 30
7.32747e-15
 40
44
100
AcDbArc
 50
111.031
 51
137.569
  0
ARC
  5
A38
330
A02
100
AcDbEntity
  8
Fillet019029001
100
AcDbCircle
 10
-17
 20
18.3373
 30
-3.14591e-15
 40
2
100
AcDbArc
 50
137.569
 51
180
  0
LINE
  5
A39
330
A02
100
AcDbEntity
  8
Fillet019029001
100
AcDbLine
 10
-19
 20
-3.21736
 30
0
 11
-19
 21
18.3373
 31
0
  0
ARC
  5
A3A
330
A02
100
AcDbEntity
  8
Fillet019029001
100
AcDbCircle
 10
-17
 20
-3.21736
 30
1.59409e-15
 40
2
100
AcDbArc
 50
-180
 51
-93.6811
  0
LINE
  5
A3B
330
A02
100
AcDbEntity
  8
Fillet019029001
100
AcDbLine
 10
-3.13999
 20
-6.11318
 30
3.52163e-15
 11
-17.1284
 21
-5.21323
 31
4.15578e-16
  0
ARC
  5
A3C
330
A02
100
AcDbEntity
  8
Fillet019029001
100
AcDbCircle
 10
-3.01158
 20
-4.11731
 30
7.98014e-15
 40
2
100
AcDbArc
 50
-93.6811
 51
-19.0757
  0
ARC
  5
A3D
330
A02
100
AcDbEntity
  8
Fillet019029001
100
AcDbCircle
 10
14
 20
-10
 30
7.32747e-15
 40
16
100
AcDbArc
 50
129.814
 51
160.924
  0
ARC
  5
A3E
330
A02
100
AcDbEntity
  8
Fillet019029001
100
AcDbCircle
 10
2.47474
 20
3.82636
 30
8.65835e-15
 40
2
100
AcDbArc
 50
-50.1864
 51
7.9582
  0
ARC
  5
A3F
330
A02
100
AcDbEntity
  8
Fillet019029001
100
AcDbCircle
 10
62.1019
 20
1.22199
 30
3.55882e-14
 40
2
100
AcDbArc
 50
-60.4025
 51
-5.14468
  0
LINE
  5
A40
330
A02
100
AcDbEntity
  8
Fillet019029001
100
AcDbLine
 10
64.0939
 20
1.04264
 30
3.68805e-14
 11
64.0939
 21
1.04264
 31
-3
  0
ARC
  5
A41
330
A02
100
AcDbEntity
  8
Fillet019029001
100
AcDbCircle
 10
62.1019
 20
1.22199
 30
-3
 40
2
100
AcDbArc
 50
-60.4025
 51
-5.14468
  0
LINE
  5
A42
330
A02
100
AcDbEntity
  8
Fillet019029001
100
AcDbLine
 10
63.0897
 20
-0.517048
 30
3.60576e-14
 11
63.0897
 21
-0.517048
 31
-3
  0
LINE
  5
A43
330
A02
100
AcDbEntity
  8
Fillet019029001
100
AcDbLine
 10
21.9025
 20
-23.9123
 30
3.25522e-14
 11
21.9025
 21
-23.9123
 31
-3
  0
ARC
  5
A44
330
A02
100
AcDbEntity
  8
Fillet019029001
100
AcDbCircle
 10
14
 20
-10
 30
-3
 40
16
100
AcDbArc
 50
-103.681
 51
-60.4025
  0
LINE
  5
A45
330
A02
100
AcDbEntity
  8
Fillet019029001
100
AcDbLine
 10
10.2157
 20
-25.546
 30
2.51372e-14
 11
10.2157
 21
-25.546
 31
-3
  0
ARC
  5
A46
330
A02
100
AcDbEntity
  8
Fillet019029001
100
AcDbCircle
 10
14
 20
-10
 30
7.32747e-15
 40
16
100
AcDbArc
 50
-103.681
 51
-60.4025
  0
LINE
  5
A47
330
A02
100
AcDbEntity
  8
Fillet019029001
100
AcDbLine
 10
21.9025
 20
-23.9123
 30
-3
 11
63.0897
 21
-0.517048
 31
-3
  0
ARC
  5
A48
330
A02
100
AcDbEntity
  8
Fillet019029001
100
AcDbCircle
 10
14
 20
-10
 30
-3
 40
16
100
AcDbArc
 50
-103.681
 51
-60.4025
  0
LINE
  5
A49
330
A02
100
AcDbEntity
  8
Fillet019029001
100
AcDbLine
 10
10.2157
 20
-25.546
 30
-3
 11
-29
 21
-16
 31
-3
  0
LINE
  5
A4A
330
A02
100
AcDbEntity
  8
Fillet019029001
100
AcDbLine
 10
-29
 20
-16
 30
-3
 11
-29
 21
58
 31
-3
  0
LINE
  5
A4B
330
A02
100
AcDbEntity
  8
Fillet019029001
100
AcDbLine
 10
-27
 20
58
 30
-3
 11
-29
 21
58
 31
-3
  0
ARC
  5
A4C
330
A02
100
AcDbEntity
  8
Fillet019029001
100
AcDbCircle
 10
-27
 20
60
 30
-3
 40
2
100
AcDbArc
 50
-90
 51
0
  0
LINE
  5
A4D
330
A02
100
AcDbEntity
  8
Fillet019029001
100
AcDbLine
 10
-25
 20
60
 30
-3
 11
-25
 21
66
 31
-3
  0
ARC
  5
A4E
330
A02
100
AcDbEntity
  8
Fillet019029001
100
AcDbCircle
 10
-27
 20
66
 30
-3
 40
2
100
AcDbArc
 50
0
 51
90
  0
LINE
  5
A4F
330
A02
100
AcDbEntity
  8
Fillet019029001
100
AcDbLine
 10
-27
 20
68
 30
-3
 11
-29
 21
68
 31
-3
  0
LINE
  5
A50
330
A02
100
AcDbEntity
  8
Fillet019029001
100
AcDbLine
 10
-29
 20
68
 30
-3
 11
-29
 21
84
 31
-3
  0
LINE
  5
A51
330
A02
100
AcDbEntity
  8
Fillet019029001
100
AcDbLine
 10
-29
 20
84
 30
-3
 11
-28.6476
 21
84
 31
-3
  0
LINE
  5
A52
330
A02
100
AcDbEntity
  8
Fillet019029001
100
AcDbLine
 10
-28.6476
 20
84
 30
-3
 11
-12.1776
 21
70.1801
 31
-3
  0
LINE
  5
A53
330
A02
100
AcDbEntity
  8
Fillet019029001
100
AcDbLine
 10
-13.1418
 20
69.031
 30
-3
 11
-12.1776
 21
70.1801
 31
-3
  0
LINE
  5
A54
330
A02
100
AcDbEntity
  8
Fillet019029001
100
AcDbLine
 10
-13.1418
 20
69.031
 30
-3
 11
-16.5358
 21
71.8789
 31
-3
  0
ARC
  5
A55
330
A02
100
AcDbEntity
  8
Fillet019029001
100
AcDbCircle
 10
-17.5
 20
70.7298
 30
-3
 40
1.5
100
AcDbArc
 50
50
 51
180
  0
LINE
  5
A56
330
A02
100
AcDbEntity
  8
Fillet019029001
100
AcDbLine
 10
-19
 20
67.7298
 30
-3
 11
-19
 21
70.7298
 31
-3
  0
ARC
  5
A57
330
A02
100
AcDbEntity
  8
Fillet019029001
100
AcDbCircle
 10
-17.5
 20
67.7298
 30
-3
 40
1.5
100
AcDbArc
 50
180
 51
-90
  0
LINE
  5
A58
330
A02
100
AcDbEntity
  8
Fillet019029001
100
AcDbLine
 10
-12.9282
 20
66.2298
 30
-3
 11
-17.5
 21
66.2298
 31
-3
  0
ARC
  5
A59
330
A02
100
AcDbEntity
  8
Fillet019029001
100
AcDbCircle
 10
-12.9282
 20
67.7298
 30
-3
 40
1.5
100
AcDbArc
 50
-90
 51
-40
  0
LINE
  5
A5A
330
A02
100
AcDbEntity
  8
Fillet019029001
100
AcDbLine
 10
-11.7791
 20
66.7657
 30
-3
 11
-10.2625
 21
68.5731
 31
-3
  0
LINE
  5
A5B
330
A02
100
AcDbEntity
  8
Fillet019029001
100
AcDbLine
 10
12.7709
 20
49.2458
 30
-3
 11
-10.2625
 21
68.5731
 31
-3
  0
ARC
  5
A5C
330
A02
100
AcDbEntity
  8
Fillet019029001
100
AcDbCircle
 10
11.4853
 20
47.7137
 30
-3
 40
2
100
AcDbArc
 50
7.9582
 51
50
  0
LINE
  5
A5D
330
A02
100
AcDbEntity
  8
Fillet019029001
100
AcDbLine
 10
19.311
 20
6.18002
 30
-3
 11
13.466
 21
47.9906
 31
-3
  0
ARC
  5
A5E
330
A02
100
AcDbEntity
  8
Fillet019029001
100
AcDbCircle
 10
21.2918
 20
6.45692
 30
-3
 40
2
100
AcDbArc
 50
-172.042
 51
-113.897
  0
ARC
  5
A5F
330
A02
100
AcDbEntity
  8
Fillet019029001
100
AcDbCircle
 10
14
 20
-10
 30
-3
 40
16
100
AcDbArc
 50
34.9921
 51
66.1028
  0
ARC
  5
A60
330
A02
100
AcDbEntity
  8
Fillet019029001
100
AcDbCircle
 10
28.7462
 20
0.32233
 30
-3
 40
2
100
AcDbArc
 50
-145.008
 51
-70.4025
  0
LINE
  5
A61
330
A02
100
AcDbEntity
  8
Fillet019029001
100
AcDbLine
 10
29.417
 20
-1.56181
 30
-3
 11
62.0571
 21
10.0592
 31
-3
  0
ARC
  5
A62
330
A02
100
AcDbEntity
  8
Fillet019029001
100
AcDbCircle
 10
62.7279
 20
8.17504
 30
-3
 40
2
100
AcDbArc
 50
-5.14468
 51
109.597
  0
LINE
  5
A63
330
A02
100
AcDbEntity
  8
Fillet019029001
100
AcDbLine
 10
64.0939
 20
1.04264
 30
-3
 11
64.7199
 21
7.9957
 31
-3
  0
ARC
  5
A64
330
A02
100
AcDbEntity
  8
Fillet019029001
100
AcDbCircle
 10
62.1019
 20
1.22199
 30
-3
 40
2
100
AcDbArc
 50
-60.4025
 51
-5.14468
  0
CIRCLE
  5
A65
330
A02
100
AcDbEntity
  8
Fillet019029001
100
AcDbCircle
 10
-11
 20
47
 40
4.5
  0
CIRCLE
  5
A66
330
A02
100
AcDbEntity
  8
Fillet019029001
100
AcDbCircle
 10
-24
 20
28
 40
1.5
  0
CIRCLE
  5
A67
330
A02
100
AcDbEntity
  8
Fillet019029001
100
AcDbCircle
 10
7.5
 20
38.5
 40
1.5
  0
CIRCLE
  5
A68
330
A02
100
AcDbEntity
  8
Fillet019029001
100
AcDbCircle
 10
61.0239
 20
5.97611
 40
1.5
  0
CIRCLE
  5
A69
330
A02
100
AcDbEntity
  8
Fillet019029001
100
AcDbCircle
 10
-24
 20
75
 40
1.5
  0
CIRCLE
  5
A6A
330
A02
100
AcDbEntity
  8
Fillet019029001
100
AcDbCircle
 10
14
 20
-10
 40
1.5
  0
CIRCLE
  5
A6B
330
A02
100
AcDbEntity
  8
Fillet019029001
100
AcDbCircle
 10
-19
 20
47
 40
1.5
  0
CIRCLE
  5
A6C
330
A02
100
AcDbEntity
  8
Fillet019029001
100
AcDbCircle
 10
-11
 20
56.5
 40
1.5
  0
CIRCLE
  5
A6D
330
A02
100
AcDbEntity
  8
Fillet019029001
100
AcDbCircle
 10
-3
 20
47
 40
1.5
  0
CIRCLE
  5
A6E
330
A02
100
AcDbEntity
  8
Fillet019029001
100
AcDbCircle
 10
-24
 20
-7
 40
1.5
  0
CIRCLE
  5
A6F
330
A02
100
AcDbEntity
  8
Fillet019029001
100
AcDbCircle
 10
-11
 20
37.5
 40
1.5
  0
LINE
  5
A70
330
A02
100
AcDbEntity
  8
Fillet019029001
100
AcDbLine
 10
4.45548
 20
4.10326
 30
-3
 11
0.908011
 21
29.4791
 31
-3
  0
ARC
  5
A71
330
A02
100
AcDbEntity
  8
Fillet019029001
100
AcDbCircle
 10
-1.07273
 20
29.2022
 30
-3
 40
2
100
AcDbArc
 50
7.9582
 51
111.031
  0
ARC
  5
A72
330
A02
100
AcDbEntity
  8
Fillet019029001
100
AcDbCircle
 10
14
 20
-10
 30
-3
 40
44
100
AcDbArc
 50
111.031
 51
137.569
  0
ARC
  5
A73
330
A02
100
AcDbEntity
  8
Fillet019029001
100
AcDbCircle
 10
-17
 20
18.3373
 30
-3
 40
2
100
AcDbArc
 50
137.569
 51
180
  0
LINE
  5
A74
330
A02
100
AcDbEntity
  8
Fillet019029001
100
AcDbLine
 10
-19
 20
-3.21736
 30
-3
 11
-19
 21
18.3373
 31
-3
  0
ARC
  5
A75
330
A02
100
AcDbEntity
  8
Fillet019029001
100
AcDbCircle
 10
-17
 20
-3.21736
 30
-3
 40
2
100
AcDbArc
 50
-180
 51
-93.6811
  0
LINE
  5
A76
330
A02
100
AcDbEntity
  8
Fillet019029001
100
AcDbLine
 10
-3.13999
 20
-6.11318
 30
-3
 11
-17.1284
 21
-5.21323
 31
-3
  0
ARC
  5
A77
330
A02
100
AcDbEntity
  8
Fillet019029001
100
AcDbCircle
 10
-3.01158
 20
-4.11731
 30
-3
 40
2
100
AcDbArc
 50
-93.6811
 51
-19.0757
  0
ARC
  5
A78
330
A02
100
AcDbEntity
  8
Fillet019029001
100
AcDbCircle
 10
14
 20
-10
 30
-3
 40
16
100
AcDbArc
 50
129.814
 51
160.924
  0
ARC
  5
A79
330
A02
100
AcDbEntity
  8
Fillet019029001
100
AcDbCircle
 10
2.47474
 20
3.82636
 30
-3
 40
2
100
AcDbArc
 50
-50.1864
 51
7.9582
  0
LINE
  5
A7A
330
A02
100
AcDbEntity
  8
Fillet019029001
100
AcDbLine
 10
64.0939
 20
1.04264
 30
1.84505e-14
 11
64.7199
 21
7.9957
 31
1.85895e-14
  0
LINE
  5
A7B
330
A02
100
AcDbEntity
  8
Fillet019029001
100
AcDbLine
 10
64.0939
 20
1.04264
 30
3.68805e-14
 11
64.0939
 21
1.04264
 31
-3
  0
LINE
  5
A7C
330
A02
100
AcDbEntity
  8
Fillet019029001
100
AcDbLine
 10
64.0939
 20
1.04264
 30
-3
 11
64.7199
 21
7.9957
 31
-3
  0
LINE
  5
A7D
330
A02
100
AcDbEntity
  8
Fillet019029001
100
AcDbLine
 10
64.7199
 20
7.9957
 30
3.57195e-14
 11
64.7199
 21
7.9957
 31
-3
  0
LINE
  5
A7E
330
A02
100
AcDbEntity
  8
Fillet019029001
100
AcDbLine
 10
10.2157
 20
-25.546
 30
2.51372e-14
 11
10.2157
 21
-25.546
 31
-3
  0
LINE
  5
A7F
330
A02
100
AcDbEntity
  8
Fillet019029001
100
AcDbLine
 10
10.2157
 20
-25.546
 30
2.50102e-14
 11
-29
 21
-16
 31
-3.07061e-15
  0
LINE
  5
A80
330
A02
100
AcDbEntity
  8
Fillet019029001
100
AcDbLine
 10
-29
 20
-16
 30
-3.11045e-15
 11
-29
 21
-16
 31
-3
  0
LINE
  5
A81
330
A02
100
AcDbEntity
  8
Fillet019029001
100
AcDbLine
 10
10.2157
 20
-25.546
 30
-3
 11
-29
 21
-16
 31
-3
  0
ARC
  5
A82
330
A02
100
AcDbEntity
  8
Fillet019029001
100
AcDbCircle
 10
62.7279
 20
8.17504
 30
3.43372e-14
 40
2
100
AcDbArc
 50
-5.14468
 51
109.597
  0
LINE
  5
A83
330
A02
100
AcDbEntity
  8
Fillet019029001
100
AcDbLine
 10
62.0571
 20
10.0592
 30
3.34783e-14
 11
62.0571
 21
10.0592
 31
-3
  0
ARC
  5
A84
330
A02
100
AcDbEntity
  8
Fillet019029001
100
AcDbCircle
 10
62.7279
 20
8.17504
 30
-3
 40
2
100
AcDbArc
 50
-5.14468
 51
109.597
  0
LINE
  5
A85
330
A02
100
AcDbEntity
  8
Fillet019029001
100
AcDbLine
 10
64.7199
 20
7.9957
 30
3.57195e-14
 11
64.7199
 21
7.9957
 31
-3
  0
LINE
  5
A86
330
A02
100
AcDbEntity
  8
Fillet019029001
100
AcDbLine
 10
-29
 20
-16
 30
-3.11045e-15
 11
-29
 21
-16
 31
-3
  0
LINE
  5
A87
330
A02
100
AcDbEntity
  8
Fillet019029001
100
AcDbLine
 10
-29
 20
-16
 30
-3
 11
-29
 21
58
 31
-3
  0
LINE
  5
A88
330
A02
100
AcDbEntity
  8
Fillet019029001
100
AcDbLine
 10
-29
 20
58
 30
-1.95404e-14
 11
-29
 21
58
 31
-3
  0
LINE
  5
A89
330
A02
100
AcDbEntity
  8
Fillet019029001
100
AcDbLine
 10
-29
 20
-16
 30
-2.22045e-15
 11
-29
 21
58
 31
-2.22045e-15
  0
LINE
  5
A8A
330
A02
100
AcDbEntity
  8
Fillet019029001
100
AcDbLine
 10
29.417
 20
-1.56181
 30
1.07507e-14
 11
62.0571
 21
10.0592
 31
1.79983e-14
  0
LINE
  5
A8B
330
A02
100
AcDbEntity
  8
Fillet019029001
100
AcDbLine
 10
29.417
 20
-1.56181
 30
2.19007e-14
 11
29.417
 21
-1.56181
 31
-3
  0
LINE
  5
A8C
330
A02
100
AcDbEntity
  8
Fillet019029001
100
AcDbLine
 10
29.417
 20
-1.56181
 30
-3
 11
62.0571
 21
10.0592
 31
-3
  0
LINE
  5
A8D
330
A02
100
AcDbEntity
  8
Fillet019029001
100
AcDbLine
 10
62.0571
 20
10.0592
 30
3.34783e-14
 11
62.0571
 21
10.0592
 31
-3
  0
LINE
  5
A8E
330
A02
100
AcDbEntity
  8
Fillet019029001
100
AcDbLine
 10
-27
 20
58
 30
-1.77636e-15
 11
-29
 21
58
 31
-2.22045e-15
  0
LINE
  5
A8F
330
A02
100
AcDbEntity
  8
Fillet019029001
100
AcDbLine
 10
-27
 20
58
 30
-1.58764e-14
 11
-27
 21
58
 31
-3
  0
LINE
  5
A90
330
A02
100
AcDbEntity
  8
Fillet019029001
100
AcDbLine
 10
-27
 20
58
 30
-3
 11
-29
 21
58
 31
-3
  0
LINE
  5
A91
330
A02
100
AcDbEntity
  8
Fillet019029001
100
AcDbLine
 10
-29
 20
58
 30
-1.95404e-14
 11
-29
 21
58
 31
-3
  0
ARC
  5
A92
330
A02
100
AcDbEntity
  8
Fillet019029001
100
AcDbCircle
 10
28.7462
 20
0.32233
 30
2.10418e-14
 40
2
100
AcDbArc
 50
-145.008
 51
-70.4025
  0
LINE
  5
A93
330
A02
100
AcDbEntity
  8
Fillet019029001
100
AcDbLine
 10
29.417
 20
-1.56181
 30
2.19007e-14
 11
29.417
 21
-1.56181
 31
-3
  0
ARC
  5
A94
330
A02
100
AcDbEntity
  8
Fillet019029001
100
AcDbCircle
 10
28.7462
 20
0.32233
 30
-3
 40
2
100
AcDbArc
 50
-145.008
 51
-70.4025
  0
LINE
  5
A95
330
A02
100
AcDbEntity
  8
Fillet019029001
100
AcDbLine
 10
27.1077
 20
-0.824596
 30
2.0908e-14
 11
27.1077
 21
-0.824596
 31
-3
  0
ARC
  5
A96
330
A02
100
AcDbEntity
  8
Fillet019029001
100
AcDbCircle
 10
-27
 20
60
 30
-1.67364e-14
 40
2
100
AcDbArc
 50
-90
 51
0
  0
LINE
  5
A97
330
A02
100
AcDbEntity
  8
Fillet019029001
100
AcDbLine
 10
-25
 20
60
 30
-1.57523e-14
 11
-25
 21
60
 31
-3
  0
ARC
  5
A98
330
A02
100
AcDbEntity
  8
Fillet019029001
100
AcDbCircle
 10
-27
 20
60
 30
-3
 40
2
100
AcDbArc
 50
-90
 51
0
  0
LINE
  5
A99
330
A02
100
AcDbEntity
  8
Fillet019029001
100
AcDbLine
 10
-27
 20
58
 30
-1.58764e-14
 11
-27
 21
58
 31
-3
  0
ARC
  5
A9A
330
A02
100
AcDbEntity
  8
Fillet019029001
100
AcDbCircle
 10
14
 20
-10
 30
7.32747e-15
 40
16
100
AcDbArc
 50
34.9921
 51
66.1028
  0
LINE
  5
A9B
330
A02
100
AcDbEntity
  8
Fillet019029001
100
AcDbLine
 10
20.4816
 20
4.62838
 30
1.62667e-14
 11
20.4816
 21
4.62838
 31
-3
  0
ARC
  5
A9C
330
A02
100
AcDbEntity
  8
Fillet019029001
100
AcDbCircle
 10
14
 20
-10
 30
-3
 40
16
100
AcDbArc
 50
34.9921
 51
66.1028
  0
LINE
  5
A9D
330
A02
100
AcDbEntity
  8
Fillet019029001
100
AcDbLine
 10
27.1077
 20
-0.824596
 30
2.0908e-14
 11
27.1077
 21
-0.824596
 31
-3
  0
LINE
  5
A9E
330
A02
100
AcDbEntity
  8
Fillet019029001
100
AcDbLine
 10
-25
 20
60
 30
-1.33227e-15
 11
-25
 21
66
 31
-1.33227e-15
  0
LINE
  5
A9F
330
A02
100
AcDbEntity
  8
Fillet019029001
100
AcDbLine
 10
-25
 20
60
 30
-1.57523e-14
 11
-25
 21
60
 31
-3
  0
LINE
  5
AA0
330
A02
100
AcDbEntity
  8
Fillet019029001
100
AcDbLine
 10
-25
 20
60
 30
-3
 11
-25
 21
66
 31
-3
  0
LINE
  5
AA1
330
A02
100
AcDbEntity
  8
Fillet019029001
100
AcDbLine
 10
-25
 20
66
 30
-1.72123e-14
 11
-25
 21
66
 31
-3
  0
ARC
  5
AA2
330
A02
100
AcDbEntity
  8
Fillet019029001
100
AcDbCircle
 10
21.2918
 20
6.45692
 30
1.63966e-14
 40
2
100
AcDbArc
 50
-172.042
 51
-113.897
  0
LINE
  5
AA3
330
A02
100
AcDbEntity
  8
Fillet019029001
100
AcDbLine
 10
20.4816
 20
4.62838
 30
1.62667e-14
 11
20.4816
 21
4.62838
 31
-3
  0
ARC
  5
AA4
330
A02
100
AcDbEntity
  8
Fillet019029001
100
AcDbCircle
 10
21.2918
 20
6.45692
 30
-3
 40
2
100
AcDbArc
 50
-172.042
 51
-113.897
  0
LINE
  5
AA5
330
A02
100
AcDbEntity
  8
Fillet019029001
100
AcDbLine
 10
19.311
 20
6.18002
 30
1.55468e-14
 11
19.311
 21
6.18002
 31
-3
  0
ARC
  5
AA6
330
A02
100
AcDbEntity
  8
Fillet019029001
100
AcDbCircle
 10
-27
 20
66
 30
-1.80564e-14
 40
2
100
AcDbArc
 50
0
 51
90
  0
LINE
  5
AA7
330
A02
100
AcDbEntity
  8
Fillet019029001
100
AcDbLine
 10
-27
 20
68
 30
-1.80964e-14
 11
-27
 21
68
 31
-3
  0
ARC
  5
AA8
330
A02
100
AcDbEntity
  8
Fillet019029001
100
AcDbCircle
 10
-27
 20
66
 30
-3
 40
2
100
AcDbArc
 50
0
 51
90
  0
LINE
  5
AA9
330
A02
100
AcDbEntity
  8
Fillet019029001
100
AcDbLine
 10
-25
 20
66
 30
-1.72123e-14
 11
-25
 21
66
 31
-3
  0
LINE
  5
AAA
330
A02
100
AcDbEntity
  8
Fillet019029001
100
AcDbLine
 10
19.311
 20
6.18002
 30
8.50675e-15
 11
13.466
 21
47.9906
 31
7.20891e-15
  0
LINE
  5
AAB
330
A02
100
AcDbEntity
  8
Fillet019029001
100
AcDbLine
 10
19.311
 20
6.18002
 30
1.55468e-14
 11
19.311
 21
6.18002
 31
-3
  0
LINE
  5
AAC
330
A02
100
AcDbEntity
  8
Fillet019029001
100
AcDbLine
 10
19.311
 20
6.18002
 30
-3
 11
13.466
 21
47.9906
 31
-3
  0
LINE
  5
AAD
330
A02
100
AcDbEntity
  8
Fillet019029001
100
AcDbLine
 10
13.466
 20
47.9906
 30
4.13891e-15
 11
13.466
 21
47.9906
 31
-3
  0
LINE
  5
AAE
330
A02
100
AcDbEntity
  8
Fillet019029001
100
AcDbLine
 10
-27
 20
68
 30
-1.77636e-15
 11
-29
 21
68
 31
-2.22045e-15
  0
LINE
  5
AAF
330
A02
100
AcDbEntity
  8
Fillet019029001
100
AcDbLine
 10
-27
 20
68
 30
-1.80964e-14
 11
-27
 21
68
 31
-3
  0
LINE
  5
AB0
330
A02
100
AcDbEntity
  8
Fillet019029001
100
AcDbLine
 10
-27
 20
68
 30
-3
 11
-29
 21
68
 31
-3
  0
LINE
  5
AB1
330
A02
100
AcDbEntity
  8
Fillet019029001
100
AcDbLine
 10
-29
 20
68
 30
-2.17604e-14
 11
-29
 21
68
 31
-3
  0
ARC
  5
AB2
330
A02
100
AcDbEntity
  8
Fillet019029001
100
AcDbCircle
 10
11.4853
 20
47.7137
 30
2.97909e-15
 40
2
100
AcDbArc
 50
7.9582
 51
50
  0
LINE
  5
AB3
330
A02
100
AcDbEntity
  8
Fillet019029001
100
AcDbLine
 10
13.466
 20
47.9906
 30
4.13891e-15
 11
13.466
 21
47.9906
 31
-3
  0
ARC
  5
AB4
330
A02
100
AcDbEntity
  8
Fillet019029001
100
AcDbCircle
 10
11.4853
 20
47.7137
 30
-3
 40
2
100
AcDbArc
 50
7.9582
 51
50
  0
LINE
  5
AB5
330
A02
100
AcDbEntity
  8
Fillet019029001
100
AcDbLine
 10
12.7709
 20
49.2458
 30
3.23455e-15
 11
12.7709
 21
49.2458
 31
-3
  0
LINE
  5
AB6
330
A02
100
AcDbEntity
  8
Fillet019029001
100
AcDbLine
 10
-29
 20
68
 30
-2.17604e-14
 11
-29
 21
68
 31
-3
  0
LINE
  5
AB7
330
A02
100
AcDbEntity
  8
Fillet019029001
100
AcDbLine
 10
-29
 20
68
 30
-3
 11
-29
 21
84
 31
-3
  0
LINE
  5
AB8
330
A02
100
AcDbEntity
  8
Fillet019029001
100
AcDbLine
 10
-29
 20
84
 30
-2.53104e-14
 11
-29
 21
84
 31
-3
  0
LINE
  5
AB9
330
A02
100
AcDbEntity
  8
Fillet019029001
100
AcDbLine
 10
-29
 20
68
 30
-2.22045e-15
 11
-29
 21
84
 31
-2.22045e-15
  0
LINE
  5
ABA
330
A02
100
AcDbEntity
  8
Fillet019029001
100
AcDbLine
 10
12.7709
 20
49.2458
 30
7.05455e-15
 11
-10.2625
 21
68.5731
 31
1.94011e-15
  0
LINE
  5
ABB
330
A02
100
AcDbEntity
  8
Fillet019029001
100
AcDbLine
 10
12.7709
 20
49.2458
 30
3.23455e-15
 11
12.7709
 21
49.2458
 31
-3
  0
LINE
  5
ABC
330
A02
100
AcDbEntity
  8
Fillet019029001
100
AcDbLine
 10
12.7709
 20
49.2458
 30
-3
 11
-10.2625
 21
68.5731
 31
-3
  0
LINE
  5
ABD
330
A02
100
AcDbEntity
  8
Fillet019029001
100
AcDbLine
 10
-10.2625
 20
68.5731
 30
-9.40989e-15
 11
-10.2625
 21
68.5731
 31
-3
  0
LINE
  5
ABE
330
A02
100
AcDbEntity
  8
Fillet019029001
100
AcDbLine
 10
-29
 20
84
 30
-2.53104e-14
 11
-29
 21
84
 31
-3
  0
LINE
  5
ABF
330
A02
100
AcDbEntity
  8
Fillet019029001
100
AcDbLine
 10
-29
 20
84
 30
-3
 11
-28.6476
 21
84
 31
-3
  0
LINE
  5
AC0
330
A02
100
AcDbEntity
  8
Fillet019029001
100
AcDbLine
 10
-28.6476
 20
84
 30
-2.50822e-14
 11
-28.6476
 21
84
 31
-3
  0
LINE
  5
AC1
330
A02
100
AcDbEntity
  8
Fillet019029001
100
AcDbLine
 10
-29
 20
84
 30
-2.22045e-15
 11
-28.6476
 21
84
 31
-2.14219e-15
  0
LINE
  5
AC2
330
A02
100
AcDbEntity
  8
Fillet019029001
100
AcDbLine
 10
-11.7791
 20
66.7657
 30
-1.00166e-14
 11
-11.7791
 21
66.7657
 31
-3
  0
LINE
  5
AC3
330
A02
100
AcDbEntity
  8
Fillet019029001
100
AcDbLine
 10
-11.7791
 20
66.7657
 30
-3
 11
-10.2625
 21
68.5731
 31
-3
  0
LINE
  5
AC4
330
A02
100
AcDbEntity
  8
Fillet019029001
100
AcDbLine
 10
-10.2625
 20
68.5731
 30
-9.40989e-15
 11
-10.2625
 21
68.5731
 31
-3
  0
LINE
  5
AC5
330
A02
100
AcDbEntity
  8
Fillet019029001
100
AcDbLine
 10
-11.7791
 20
66.7657
 30
1.60336e-15
 11
-10.2625
 21
68.5731
 31
1.94011e-15
  0
LINE
  5
AC6
330
A02
100
AcDbEntity
  8
Fillet019029001
100
AcDbLine
 10
-28.6476
 20
84
 30
-2.50822e-14
 11
-28.6476
 21
84
 31
-3
  0
LINE
  5
AC7
330
A02
100
AcDbEntity
  8
Fillet019029001
100
AcDbLine
 10
-28.6476
 20
84
 30
-3
 11
-12.1776
 21
70.1801
 31
-3
  0
LINE
  5
AC8
330
A02
100
AcDbEntity
  8
Fillet019029001
100
AcDbLine
 10
-12.1776
 20
70.1801
 30
-1.10351e-14
 11
-12.1776
 21
70.1801
 31
-3
  0
LINE
  5
AC9
330
A02
100
AcDbEntity
  8
Fillet019029001
100
AcDbLine
 10
-28.6476
 20
84
 30
-2.14219e-15
 11
-12.1776
 21
70.1801
 31
1.51487e-15
  0
LINE
  5
ACA
330
A02
100
AcDbEntity
  8
Fillet019029001
100
AcDbLine
 10
-11.7791
 20
66.7657
 30
-1.00166e-14
 11
-11.7791
 21
66.7657
 31
-3
  0
ARC
  5
ACB
330
A02
100
AcDbEntity
  8
Fillet019029001
100
AcDbCircle
 10
-12.9282
 20
67.7298
 30
-3
 40
1.5
100
AcDbArc
 50
-90
 51
-40
  0
LINE
  5
ACC
330
A02
100
AcDbEntity
  8
Fillet019029001
100
AcDbLine
 10
-12.9282
 20
66.2298
 30
-1.06618e-14
 11
-12.9282
 21
66.2298
 31
-3
  0
ARC
  5
ACD
330
A02
100
AcDbEntity
  8
Fillet019029001
100
AcDbCircle
 10
-12.9282
 20
67.7298
 30
1.34821e-15
 40
1.5
100
AcDbArc
 50
-90
 51
-40
  0
LINE
  5
ACE
330
A02
100
AcDbEntity
  8
Fillet019029001
100
AcDbLine
 10
-13.1418
 20
69.031
 30
-1.14292e-14
 11
-13.1418
 21
69.031
 31
-3
  0
LINE
  5
ACF
330
A02
100
AcDbEntity
  8
Fillet019029001
100
AcDbLine
 10
-13.1418
 20
69.031
 30
-3
 11
-12.1776
 21
70.1801
 31
-3
  0
LINE
  5
AD0
330
A02
100
AcDbEntity
  8
Fillet019029001
100
AcDbLine
 10
-12.1776
 20
70.1801
 30
-1.10351e-14
 11
-12.1776
 21
70.1801
 31
-3
  0
LINE
  5
AD1
330
A02
100
AcDbEntity
  8
Fillet019029001
100
AcDbLine
 10
-13.1418
 20
69.031
 30
1.30078e-15
 11
-12.1776
 21
70.1801
 31
1.51487e-15
  0
LINE
  5
AD2
330
A02
100
AcDbEntity
  8
Fillet019029001
100
AcDbLine
 10
-12.9282
 20
66.2298
 30
-1.06618e-14
 11
-12.9282
 21
66.2298
 31
-3
  0
LINE
  5
AD3
330
A02
100
AcDbEntity
  8
Fillet019029001
100
AcDbLine
 10
-12.9282
 20
66.2298
 30
-3
 11
-17.5
 21
66.2298
 31
-3
  0
LINE
  5
AD4
330
A02
100
AcDbEntity
  8
Fillet019029001
100
AcDbLine
 10
-17.5
 20
66.2298
 30
-1.37069e-14
 11
-17.5
 21
66.2298
 31
-3
  0
LINE
  5
AD5
330
A02
100
AcDbEntity
  8
Fillet019029001
100
AcDbLine
 10
-12.9282
 20
66.2298
 30
1.34821e-15
 11
-17.5
 21
66.2298
 31
3.33067e-16
  0
LINE
  5
AD6
330
A02
100
AcDbEntity
  8
Fillet019029001
100
AcDbLine
 10
-13.1418
 20
69.031
 30
-1.14292e-14
 11
-13.1418
 21
69.031
 31
-3
  0
LINE
  5
AD7
330
A02
100
AcDbEntity
  8
Fillet019029001
100
AcDbLine
 10
-13.1418
 20
69.031
 30
-3
 11
-16.5358
 21
71.8789
 31
-3
  0
LINE
  5
AD8
330
A02
100
AcDbEntity
  8
Fillet019029001
100
AcDbLine
 10
-16.5358
 20
71.8789
 30
-1.43228e-14
 11
-16.5358
 21
71.8789
 31
-3
  0
LINE
  5
AD9
330
A02
100
AcDbEntity
  8
Fillet019029001
100
AcDbLine
 10
-13.1418
 20
69.031
 30
1.30078e-15
 11
-16.5358
 21
71.8789
 31
5.47158e-16
  0
LINE
  5
ADA
330
A02
100
AcDbEntity
  8
Fillet019029001
100
AcDbLine
 10
-17.5
 20
66.2298
 30
-1.37069e-14
 11
-17.5
 21
66.2298
 31
-3
  0
ARC
  5
ADB
330
A02
100
AcDbEntity
  8
Fillet019029001
100
AcDbCircle
 10
-17.5
 20
67.7298
 30
-3
 40
1.5
100
AcDbArc
 50
180
 51
-90
  0
LINE
  5
ADC
330
A02
100
AcDbEntity
  8
Fillet019029001
100
AcDbLine
 10
-19
 20
67.7298
 30
-1.504e-14
 11
-19
 21
67.7298
 31
-3
  0
ARC
  5
ADD
330
A02
100
AcDbEntity
  8
Fillet019029001
100
AcDbCircle
 10
-17.5
 20
67.7298
 30
3.33067e-16
 40
1.5
100
AcDbArc
 50
180
 51
-90
  0
LINE
  5
ADE
330
A02
100
AcDbEntity
  8
Fillet019029001
100
AcDbLine
 10
-19
 20
70.7298
 30
-1.571e-14
 11
-19
 21
70.7298
 31
-3
  0
ARC
  5
ADF
330
A02
100
AcDbEntity
  8
Fillet019029001
100
AcDbCircle
 10
-17.5
 20
70.7298
 30
-3
 40
1.5
100
AcDbArc
 50
50
 51
180
  0
LINE
  5
AE0
330
A02
100
AcDbEntity
  8
Fillet019029001
100
AcDbLine
 10
-16.5358
 20
71.8789
 30
-1.43228e-14
 11
-16.5358
 21
71.8789
 31
-3
  0
ARC
  5
AE1
330
A02
100
AcDbEntity
  8
Fillet019029001
100
AcDbCircle
 10
-17.5
 20
70.7298
 30
3.33067e-16
 40
1.5
100
AcDbArc
 50
50
 51
180
  0
LINE
  5
AE2
330
A02
100
AcDbEntity
  8
Fillet019029001
100
AcDbLine
 10
-19
 20
67.7298
 30
-1.504e-14
 11
-19
 21
67.7298
 31
-3
  0
LINE
  5
AE3
330
A02
100
AcDbEntity
  8
Fillet019029001
100
AcDbLine
 10
-19
 20
67.7298
 30
-3
 11
-19
 21
70.7298
 31
-3
  0
LINE
  5
AE4
330
A02
100
AcDbEntity
  8
Fillet019029001
100
AcDbLine
 10
-19
 20
70.7298
 30
-1.571e-14
 11
-19
 21
70.7298
 31
-3
  0
LINE
  5
AE5
330
A02
100
AcDbEntity
  8
Fillet019029001
100
AcDbLine
 10
-19
 20
67.7298
 30
0
 11
-19
 21
70.7298
 31
0
  0
LINE
  5
AE6
330
A02
100
AcDbEntity
  8
Fillet019029001
100
AcDbLine
 10
-11
 20
51.5
 30
-6.10364e-15
 11
-11
 21
51.5
 31
-3
  0
CIRCLE
  5
AE7
330
A02
100
AcDbEntity
  8
Fillet019029001
100
AcDbCircle
 10
-11
 20
47
 40
4.5
  0
LINE
  5
AE8
330
A02
100
AcDbEntity
  8
Fillet019029001
100
AcDbLine
 10
-11
 20
51.5
 30
-6.10364e-15
 11
-11
 21
51.5
 31
-3
  0
CIRCLE
  5
AE9
330
A02
100
AcDbEntity
  8
Fillet019029001
100
AcDbCircle
 10
-11
 20
47
 40
4.5
  0
LINE
  5
AEA
330
A02
100
AcDbEntity
  8
Fillet019029001
100
AcDbLine
 10
-24
 20
29.5
 30
-9.88022e-15
 11
-24
 21
29.5
 31
-3
  0
CIRCLE
  5
AEB
330
A02
100
AcDbEntity
  8
Fillet019029001
100
AcDbCircle
 10
-24
 20
28
 40
1.5
  0
LINE
  5
AEC
330
A02
100
AcDbEntity
  8
Fillet019029001
100
AcDbLine
 10
-24
 20
29.5
 30
-9.88022e-15
 11
-24
 21
29.5
 31
-3
  0
CIRCLE
  5
AED
330
A02
100
AcDbEntity
  8
Fillet019029001
100
AcDbCircle
 10
-24
 20
28
 40
1.5
  0
LINE
  5
AEE
330
A02
100
AcDbEntity
  8
Fillet019029001
100
AcDbLine
 10
7.5
 20
40
 30
8.77418e-15
 11
7.5
 21
40
 31
-3
  0
CIRCLE
  5
AEF
330
A02
100
AcDbEntity
  8
Fillet019029001
100
AcDbCircle
 10
7.5
 20
38.5
 40
1.5
  0
LINE
  5
AF0
330
A02
100
AcDbEntity
  8
Fillet019029001
100
AcDbLine
 10
7.5
 20
40
 30
8.77418e-15
 11
7.5
 21
40
 31
-3
  0
CIRCLE
  5
AF1
330
A02
100
AcDbEntity
  8
Fillet019029001
100
AcDbCircle
 10
7.5
 20
38.5
 40
1.5
  0
LINE
  5
AF2
330
A02
100
AcDbEntity
  8
Fillet019029001
100
AcDbLine
 10
61.0239
 20
7.47611
 30
5.16489e-14
 11
61.0239
 21
7.47611
 31
-3
  0
CIRCLE
  5
AF3
330
A02
100
AcDbEntity
  8
Fillet019029001
100
AcDbCircle
 10
61.0239
 20
5.97611
 40
1.5
  0
LINE
  5
AF4
330
A02
100
AcDbEntity
  8
Fillet019029001
100
AcDbLine
 10
61.0239
 20
7.47611
 30
5.16489e-14
 11
61.0239
 21
7.47611
 31
-3
  0
CIRCLE
  5
AF5
330
A02
100
AcDbEntity
  8
Fillet019029001
100
AcDbCircle
 10
61.0239
 20
5.97611
 40
1.5
  0
LINE
  5
AF6
330
A02
100
AcDbEntity
  8
Fillet019029001
100
AcDbLine
 10
-24
 20
76.5
 30
-2.03202e-14
 11
-24
 21
76.5
 31
-3
  0
CIRCLE
  5
AF7
330
A02
100
AcDbEntity
  8
Fillet019029001
100
AcDbCircle
 10
-24
 20
75
 40
1.5
  0
LINE
  5
AF8
330
A02
100
AcDbEntity
  8
Fillet019029001
100
AcDbLine
 10
-24
 20
76.5
 30
-2.03202e-14
 11
-24
 21
76.5
 31
-3
  0
CIRCLE
  5
AF9
330
A02
100
AcDbEntity
  8
Fillet019029001
100
AcDbCircle
 10
-24
 20
75
 40
1.5
  0
LINE
  5
AFA
330
A02
100
AcDbEntity
  8
Fillet019029001
100
AcDbLine
 10
14
 20
-8.5
 30
2.38675e-14
 11
14
 21
-8.5
 31
-3
  0
CIRCLE
  5
AFB
330
A02
100
AcDbEntity
  8
Fillet019029001
100
AcDbCircle
 10
14
 20
-10
 40
1.5
  0
LINE
  5
AFC
330
A02
100
AcDbEntity
  8
Fillet019029001
100
AcDbLine
 10
14
 20
-8.5
 30
2.38675e-14
 11
14
 21
-8.5
 31
-3
  0
CIRCLE
  5
AFD
330
A02
100
AcDbEntity
  8
Fillet019029001
100
AcDbCircle
 10
14
 20
-10
 40
1.5
  0
LINE
  5
AFE
330
A02
100
AcDbEntity
  8
Fillet019029001
100
AcDbLine
 10
-19
 20
48.5
 30
-1.077e-14
 11
-19
 21
48.5
 31
-3
  0
CIRCLE
  5
AFF
330
A02
100
AcDbEntity
  8
Fillet019029001
100
AcDbCircle
 10
-19
 20
47
 40
1.5
  0
LINE
  5
B00
330
A02
100
AcDbEntity
  8
Fillet019029001
100
AcDbLine
 10
-19
 20
48.5
 30
-1.077e-14
 11
-19
 21
48.5
 31
-3
  0
CIRCLE
  5
B01
330
A02
100
AcDbEntity
  8
Fillet019029001
100
AcDbCircle
 10
-19
 20
47
 40
1.5
  0
LINE
  5
B02
330
A02
100
AcDbEntity
  8
Fillet019029001
100
AcDbLine
 10
-11
 20
58
 30
-7.55364e-15
 11
-11
 21
58
 31
-3
  0
CIRCLE
  5
B03
330
A02
100
AcDbEntity
  8
Fillet019029001
100
AcDbCircle
 10
-11
 20
56.5
 40
1.5
  0
LINE
  5
B04
330
A02
100
AcDbEntity
  8
Fillet019029001
100
AcDbLine
 10
-11
 20
58
 30
-7.55364e-15
 11
-11
 21
58
 31
-3
  0
CIRCLE
  5
B05
330
A02
100
AcDbEntity
  8
Fillet019029001
100
AcDbCircle
 10
-11
 20
56.5
 40
1.5
  0
LINE
  5
B06
330
A02
100
AcDbEntity
  8
Fillet019029001
100
AcDbLine
 10
-3
 20
48.5
 30
-1.07286e-16
 11
-3
 21
48.5
 31
-3
  0
CIRCLE
  5
B07
330
A02
100
AcDbEntity
  8
Fillet019029001
100
AcDbCircle
 10
-3
 20
47
 40
1.5
  0
LINE
  5
B08
330
A02
100
AcDbEntity
  8
Fillet019029001
100
AcDbLine
 10
-3
 20
48.5
 30
-1.07286e-16
 11
-3
 21
48.5
 31
-3
  0
CIRCLE
  5
B09
330
A02
100
AcDbEntity
  8
Fillet019029001
100
AcDbCircle
 10
-3
 20
47
 40
1.5
  0
LINE
  5
B0A
330
A02
100
AcDbEntity
  8
Fillet019029001
100
AcDbLine
 10
-24
 20
-5.5
 30
-2.11022e-15
 11
-24
 21
-5.5
 31
-3
  0
CIRCLE
  5
B0B
330
A02
100
AcDbEntity
  8
Fillet019029001
100
AcDbCircle
 10
-24
 20
-7
 40
1.5
  0
LINE
  5
B0C
330
A02
100
AcDbEntity
  8
Fillet019029001
100
AcDbLine
 10
-24
 20
-5.5
 30
-2.11022e-15
 11
-24
 21
-5.5
 31
-3
  0
CIRCLE
  5
B0D
330
A02
100
AcDbEntity
  8
Fillet019029001
100
AcDbCircle
 10
-24
 20
-7
 40
1.5
  0
LINE
  5
B0E
330
A02
100
AcDbEntity
  8
Fillet019029001
100
AcDbLine
 10
-11
 20
39
 30
-3.33364e-15
 11
-11
 21
39
 31
-3
  0
CIRCLE
  5
B0F
330
A02
100
AcDbEntity
  8
Fillet019029001
100
AcDbCircle
 10
-11
 20
37.5
 40
1.5
  0
LINE
  5
B10
330
A02
100
AcDbEntity
  8
Fillet019029001
100
AcDbLine
 10
-11
 20
39
 30
-3.33364e-15
 11
-11
 21
39
 31
-3
  0
CIRCLE
  5
B11
330
A02
100
AcDbEntity
  8
Fillet019029001
100
AcDbCircle
 10
-11
 20
37.5
 40
1.5
  0
LINE
  5
B12
330
A02
100
AcDbEntity
  8
Fillet019029001
100
AcDbLine
 10
4.45548
 20
4.10326
 30
5.20816e-15
 11
0.908011
 21
29.4791
 31
4.42047e-15
  0
LINE
  5
B13
330
A02
100
AcDbEntity
  8
Fillet019029001
100
AcDbLine
 10
4.45548
 20
4.10326
 30
9.32816e-15
 11
4.45548
 21
4.10326
 31
-3
  0
LINE
  5
B14
330
A02
100
AcDbEntity
  8
Fillet019029001
100
AcDbLine
 10
4.45548
 20
4.10326
 30
-3
 11
0.908011
 21
29.4791
 31
-3
  0
LINE
  5
B15
330
A02
100
AcDbEntity
  8
Fillet019029001
100
AcDbLine
 10
0.908011
 20
29.4791
 30
2.32047e-15
 11
0.908011
 21
29.4791
 31
-3
  0
ARC
  5
B16
330
A02
100
AcDbEntity
  8
Fillet019029001
100
AcDbCircle
 10
2.47474
 20
3.82636
 30
8.65835e-15
 40
2
100
AcDbArc
 50
-50.1864
 51
7.9582
  0
LINE
  5
B17
330
A02
100
AcDbEntity
  8
Fillet019029001
100
AcDbLine
 10
3.75532
 20
2.2901
 30
9.6527e-15
 11
3.75532
 21
2.2901
 31
-3
  0
ARC
  5
B18
330
A02
100
AcDbEntity
  8
Fillet019029001
100
AcDbCircle
 10
2.47474
 20
3.82636
 30
-3
 40
2
100
AcDbArc
 50
-50.1864
 51
7.9582
  0
LINE
  5
B19
330
A02
100
AcDbEntity
  8
Fillet019029001
100
AcDbLine
 10
4.45548
 20
4.10326
 30
9.32816e-15
 11
4.45548
 21
4.10326
 31
-3
  0
ARC
  5
B1A
330
A02
100
AcDbEntity
  8
Fillet019029001
100
AcDbCircle
 10
-1.07273
 20
29.2022
 30
1.50065e-15
 40
2
100
AcDbArc
 50
7.9582
 51
111.031
  0
LINE
  5
B1B
330
A02
100
AcDbEntity
  8
Fillet019029001
100
AcDbLine
 10
-1.79048
 20
31.069
 30
5.71282e-16
 11
-1.79048
 21
31.069
 31
-3
  0
ARC
  5
B1C
330
A02
100
AcDbEntity
  8
Fillet019029001
100
AcDbCircle
 10
-1.07273
 20
29.2022
 30
-3
 40
2
100
AcDbArc
 50
7.9582
 51
111.031
  0
LINE
  5
B1D
330
A02
100
AcDbEntity
  8
Fillet019029001
100
AcDbLine
 10
0.908011
 20
29.4791
 30
2.32047e-15
 11
0.908011
 21
29.4791
 31
-3
  0
ARC
  5
B1E
330
A02
100
AcDbEntity
  8
Fillet019029001
100
AcDbCircle
 10
14
 20
-10
 30
7.32747e-15
 40
16
100
AcDbArc
 50
129.814
 51
160.924
  0
LINE
  5
B1F
330
A02
100
AcDbEntity
  8
Fillet019029001
100
AcDbLine
 10
-1.12141
 20
-4.77094
 30
8.96985e-15
 11
-1.12141
 21
-4.77094
 31
-3
  0
ARC
  5
B20
330
A02
100
AcDbEntity
  8
Fillet019029001
100
AcDbCircle
 10
14
 20
-10
 30
-3
 40
16
100
AcDbArc
 50
129.814
 51
160.924
  0
LINE
  5
B21
330
A02
100
AcDbEntity
  8
Fillet019029001
100
AcDbLine
 10
3.75532
 20
2.2901
 30
9.6527e-15
 11
3.75532
 21
2.2901
 31
-3
  0
ARC
  5
B22
330
A02
100
AcDbEntity
  8
Fillet019029001
100
AcDbCircle
 10
14
 20
-10
 30
7.32747e-15
 40
44
100
AcDbArc
 50
111.031
 51
137.569
  0
LINE
  5
B23
330
A02
100
AcDbEntity
  8
Fillet019029001
100
AcDbLine
 10
-18.4762
 20
19.6866
 30
-4.02369e-15
 11
-18.4762
 21
19.6866
 31
-3
  0
ARC
  5
B24
330
A02
100
AcDbEntity
  8
Fillet019029001
100
AcDbCircle
 10
14
 20
-10
 30
-3
 40
44
100
AcDbArc
 50
111.031
 51
137.569
  0
LINE
  5
B25
330
A02
100
AcDbEntity
  8
Fillet019029001
100
AcDbLine
 10
-1.79048
 20
31.069
 30
5.71282e-16
 11
-1.79048
 21
31.069
 31
-3
  0
ARC
  5
B26
330
A02
100
AcDbEntity
  8
Fillet019029001
100
AcDbCircle
 10
-3.01158
 20
-4.11731
 30
7.98014e-15
 40
2
100
AcDbArc
 50
-93.6811
 51
-19.0757
  0
LINE
  5
B27
330
A02
100
AcDbEntity
  8
Fillet019029001
100
AcDbLine
 10
-1.12141
 20
-4.77094
 30
8.96985e-15
 11
-1.12141
 21
-4.77094
 31
-3
  0
ARC
  5
B28
330
A02
100
AcDbEntity
  8
Fillet019029001
100
AcDbCircle
 10
-3.01158
 20
-4.11731
 30
-3
 40
2
100
AcDbArc
 50
-93.6811
 51
-19.0757
  0
LINE
  5
B29
330
A02
100
AcDbEntity
  8
Fillet019029001
100
AcDbLine
 10
-3.13999
 20
-6.11318
 30
8.40163e-15
 11
-3.13999
 21
-6.11318
 31
-3
  0
ARC
  5
B2A
330
A02
100
AcDbEntity
  8
Fillet019029001
100
AcDbCircle
 10
-17
 20
18.3373
 30
-3.14591e-15
 40
2
100
AcDbArc
 50
137.569
 51
180
  0
LINE
  5
B2B
330
A02
100
AcDbEntity
  8
Fillet019029001
100
AcDbLine
 10
-19
 20
18.3373
 30
-3.75e-15
 11
-19
 21
18.3373
 31
-3
  0
ARC
  5
B2C
330
A02
100
AcDbEntity
  8
Fillet019029001
100
AcDbCircle
 10
-17
 20
18.3373
 30
-3
 40
2
100
AcDbArc
 50
137.569
 51
180
  0
LINE
  5
B2D
330
A02
100
AcDbEntity
  8
Fillet019029001
100
AcDbLine
 10
-18.4762
 20
19.6866
 30
-4.02369e-15
 11
-18.4762
 21
19.6866
 31
-3
  0
LINE
  5
B2E
330
A02
100
AcDbEntity
  8
Fillet019029001
100
AcDbLine
 10
-3.13999
 20
-6.11318
 30
3.52163e-15
 11
-17.1284
 21
-5.21323
 31
4.15578e-16
  0
LINE
  5
B2F
330
A02
100
AcDbEntity
  8
Fillet019029001
100
AcDbLine
 10
-3.13999
 20
-6.11318
 30
8.40163e-15
 11
-3.13999
 21
-6.11318
 31
-3
  0
LINE
  5
B30
330
A02
100
AcDbEntity
  8
Fillet019029001
100
AcDbLine
 10
-3.13999
 20
-6.11318
 30
-3
 11
-17.1284
 21
-5.21323
 31
-3
  0
LINE
  5
B31
330
A02
100
AcDbEntity
  8
Fillet019029001
100
AcDbLine
 10
-17.1284
 20
-5.21323
 30
2.10558e-15
 11
-17.1284
 21
-5.21323
 31
-3
  0
LINE
  5
B32
330
A02
100
AcDbEntity
  8
Fillet019029001
100
AcDbLine
 10
-19
 20
-3.21736
 30
0
 11
-19
 21
18.3373
 31
0
  0
LINE
  5
B33
330
A02
100
AcDbEntity
  8
Fillet019029001
100
AcDbLine
 10
-19
 20
-3.21736
 30
2.9e-16
 11
-19
 21
-3.21736
 31
-3
  0
LINE
  5
B34
330
A02
100
AcDbEntity
  8
Fillet019029001
100
AcDbLine
 10
-19
 20
-3.21736
 30
-3
 11
-19
 21
18.3373
 31
-3
  0
LINE
  5
B35
330
A02
100
AcDbEntity
  8
Fillet019029001
100
AcDbLine
 10
-19
 20
18.3373
 30
-3.75e-15
 11
-19
 21
18.3373
 31
-3
  0
ARC
  5
B36
330
A02
100
AcDbEntity
  8
Fillet019029001
100
AcDbCircle
 10
-17
 20
-3.21736
 30
1.59409e-15
 40
2
100
AcDbArc
 50
-180
 51
-93.6811
  0
LINE
  5
B37
330
A02
100
AcDbEntity
  8
Fillet019029001
100
AcDbLine
 10
-17.1284
 20
-5.21323
 30
2.10558e-15
 11
-17.1284
 21
-5.21323
 31
-3
  0
ARC
  5
B38
330
A02
100
AcDbEntity
  8
Fillet019029001
100
AcDbCircle
 10
-17
 20
-3.21736
 30
-3
 40
2
100
AcDbArc
 50
-180
 51
-93.6811
  0
LINE
  5
B39
330
A02
100
AcDbEntity
  8
Fillet019029001
100
AcDbLine
 10
-19
 20
-3.21736
 30
2.9e-16
 11
-19
 21
-3.21736
 31
-3
  0
ENDSEC
  0
SECTION
  2
OBJECTS
  0
DICTIONARY
  5
F000
330
0
100
AcDbDictionary
  3
ACAD_GROUP
350
F001
  0
DICTIONARY
  5
F001
330
F000
100
AcDbDictionary
  0
ENDSEC
  0
EOF