999
FreeCAD v0.19 
  0
SECTION
  2
HEADER
  9
$ACADVER
  1
AC1014
  9
$ACADMAINTVER
 70
     9
  9
$DWGCODEPAGE
  3
ANSI_1252
  9
$TEXTSTYLE
  7
STANDARD
  9
$DIMSTYLE
  2
STANDARD
  9
$DIMTXSTY
  7
STANDARD
  9
$CMLSTYLE
  2
STANDARD
  9
$PEXTMAX
 10
50
 20
50
 30
50
  9
$PEXTMIN
 10
0
 20
0
 30
0
  9
$HANDSEED
  5
FFFF
  0
ENDSEC
  0
SECTION
  2
CLASSES
  0
CLASS
  1
ACDBDICTIONARYWDFLT
  2
AcDbDictionaryWithDefault
  3
ObjectDBX Classes
 90
        0
280
     0
281
     0
  0
CLASS
  1
XRECORD
  2
AcDbXrecord
  3
ObjectDBX Classes
 90
        0
280
     0
281
     0
  0
CLASS
  1
LWPOLYLINE
  2
AcDbPolyline
  3
ObjectDBX Classes
 90
        0
280
     0
281
     1
  0
ENDSEC
  0
SECTION
  2
TABLES
  0
TABLE
  2
VPORT
  5
20
330
0
100
AcDbSymbolTable
 70
     1
  0
VPORT
  5
21
330
20
100
AcDbSymbolTableRecord
100
AcDbViewportTableRecord
  2
*ACTIVE
 70
     0
  0
ENDTAB
  0
TABLE
  2
LTYPE
  5
22
330
0
100
AcDbSymbolTable
 70
     1
  0
LTYPE
  5
23
330
21
100
AcDbSymbolTableRecord
100
AcDbLinetypeTableRecord
  2
BYBLOCK
 70
     0
  3

 72
    65
 73
     0
 40
0.0
  0
LTYPE
  5
24
330
21
100
AcDbSymbolTableRecord
100
AcDbLinetypeTableRecord
  2
BYLAYER
 70
     0
  3

 72
    65
 73
     0
 40
0.0
  0
LTYPE
  5
25
330
21
100
AcDbSymbolTableRecord
100
AcDbLinetypeTableRecord
  2
CONTINUOUS
 70
     0
  3
Solid line
 72
    65
 73
     0
 40
0.0
  0
ENDTAB
  0
TABLE
  2
LAYER
  5
AF8
330
0
100
AcDbSymbolTable
 70
3
  0
LAYER
  5
AF9
330
AF8
100
AcDbSymbolTableRecord
100
AcDbLayerTableRecord
  2
0
 70
   0
 62
   7
  6
CONTINUOUS
  0
LAYER
  5
AFA
330
AF8
100
AcDbSymbolTableRecord
100
AcDbLayerTableRecord
  2
none
 70
    0
 62
    7
  6
CONTINUOUS
  0
LAYER
  5
AFB
330
AF8
100
AcDbSymbolTableRecord
100
AcDbLayerTableRecord
  2
Part__Feature
 70
    0
 62
    7
  6
CONTINUOUS
  0
ENDTAB
  0
TABLE
  2
STYLE
  5
70
330
0
100
AcDbSymbolTable
 70
     2
  0
STYLE
  5
71
330
70
100
AcDbSymbolTableRecord
100
AcDbTextStyleTableRecord
  2
STANDARD
 70
     0
 40
0.0
 41
1.0
 50
0.0
 71
     0
 42
2.5
  3
arial.ttf
  4

  0
STYLE
  5
72
330
70
100
AcDbSymbolTableRecord
100
AcDbTextStyleTableRecord
  2
ANNOTATIVE
 70
     0
 40
0.0
 41
1.0
 50
0.0
 71
     0
 42
2.5
  3
arial.ttf
  4

  0
ENDTAB
  0
TABLE
  2
VIEW
  5
73
330
0
100
AcDbSymbolTable
 70
     0
  0
ENDTAB
  0
TABLE
  2
UCS
  5
74
330
0
100
AcDbSymbolTable
 70
     0
  0
ENDTAB
  0
TABLE
  2
APPID
  5
75
330
0
100
AcDbSymbolTable
 70
     2
  0
APPID
  5
76
330
75
100
AcDbSymbolTableRecord
100
AcDbRegAppTableRecord
  2
ACAD
 70
     0
  0
APPID
  5
77
330
75
100
AcDbSymbolTableRecord
100
AcDbRegAppTableRecord
  2
ACADANNOTATIVE
 70
     0
  0
ENDTAB
  0
TABLE
  2
DIMSTYLE
  5
78
330
0
100
AcDbSymbolTable
 70
     2
  0
DIMSTYLE
105
79
330
78
100
AcDbSymbolTableRecord
100
AcDbDimStyleTableRecord
  2
STANDARD
 70
     0
  3

  4

  5

  6

  7

 40
0.0
 41
2.5
 42
0.625
 43
3.75
 44
1.25
 45
0.0
 46
0.0
 47
0.0
 48
0.0
140
2.5
141
2.5
142
0.0
143
0.03937007874016
144
1.0
145
0.0
146
1.0
147
0.625
 71
     0
 72
     0
 73
     0
 74
     0
 75
     0
 76
     0
 77
     1
 78
     8
170
     0
171
     3
172
     1
173
     0
174
     0
175
     0
176
     0
177
     0
178
     0
270
     2
271
     2
272
     2
273
     2
274
     3
340
71
275
     0
280
     0
281
     0
282
     0
283
     0
284
     8
285
     0
286
     0
287
     3
288
     0
  0
ENDTAB
  0
TABLE
  2
BLOCK_RECORD
  5
A01
330
0
100
AcDbSymbolTable
  70
5
  0
BLOCK_RECORD
  5
A02
330
A01
100
AcDbSymbolTableRecord
100
AcDbBlockTableRecord
  2
*MODEL_SPACE
  0
BLOCK_RECORD
  5
A03
330
A01
100
AcDbSymbolTableRecord
100
AcDbBlockTableRecord
  2
*PAPER_SPACE
  0
ENDTAB
  0
ENDSEC
  0
SECTION
  2
BLOCKS
  0
BLOCK
  5
A04
330
A02
100
AcDbEntity
  8
0
100
AcDbBlockBegin
  2
*MODEL_SPACE
 70
   0
 10
0
 20
0
 30
0
  3
*MODEL_SPACE
  1
 
  0
ENDBLK
  5
A05
330
A02
100
AcDbEntity
  8
0
100
AcDbBlockEnd
  0
BLOCK
  5
A06
330
A03
100
AcDbEntity
 67
1
  8
0
100
AcDbBlockBegin
  2
*PAPER_SPACE
 70
   0
 10
0
 20
0
 30
0
  3
*PAPER_SPACE
  1
 
  0
ENDBLK
  5
A07
330
A03
100
AcDbEntity
 67
    1
  8
0
100
AcDbBlockEnd
  0
ENDSEC
  0
SECTION
  2
ENTITIES
  0
ARC
  5
A08
330
A02
100
AcDbEntity
  8
Part__Feature
100
AcDbCircle
 10
-10
 20
33
 30
-1.68754e-14
 40
34
100
AcDbArc
 50
-103.022
 51
5.55713
  0
LINE
  5
A09
330
A02
100
AcDbEntity
  8
Part__Feature
100
AcDbLine
 10
23.8402
 20
36.2925
 30
-1.08235e-14
 11
23.8402
 21
36.2925
 31
3
  0
ARC
  5
A0A
330
A02
100
AcDbEntity
  8
Part__Feature
100
AcDbCircle
 10
-10
 20
33
 30
3
 40
34
100
AcDbArc
 50
-103.022
 51
5.55713
  0
LINE
  5
A0B
330
A02
100
AcDbEntity
  8
Part__Feature
100
AcDbLine
 10
-17.6612
 20
-0.125609
 30
-3.86579e-15
 11
-17.6612
 21
-0.125609
 31
3
  0
ARC
  5
A0C
330
A02
100
AcDbEntity
  8
Part__Feature
100
AcDbCircle
 10
-62.0592
 20
27.9349
 30
-2.61855e-14
 40
86.305
100
AcDbArc
 50
5.55713
 51
27.6007
  0
LINE
  5
A0D
330
A02
100
AcDbEntity
  8
Part__Feature
100
AcDbLine
 10
14.4241
 20
67.9206
 30
-2.696e-14
 11
14.4241
 21
67.9206
 31
3
  0
ARC
  5
A0E
330
A02
100
AcDbEntity
  8
Part__Feature
100
AcDbCircle
 10
-62.0592
 20
27.9349
 30
3
 40
86.305
100
AcDbArc
 50
5.55713
 51
27.6007
  0
LINE
  5
A0F
330
A02
100
AcDbEntity
  8
Part__Feature
100
AcDbLine
 10
23.8402
 20
36.2925
 30
-1.08235e-14
 11
23.8402
 21
36.2925
 31
3
  0
ARC
  5
A10
330
A02
100
AcDbEntity
  8
Part__Feature
100
AcDbCircle
 10
1.51888
 20
61.1737
 30
-2.68293e-14
 40
14.5625
100
AcDbArc
 50
27.6007
 51
67.7627
  0
LINE
  5
A11
330
A02
100
AcDbEntity
  8
Part__Feature
100
AcDbLine
 10
7.02996
 20
74.6531
 30
-3.15917e-14
 11
7.02996
 21
74.6531
 31
3
  0
ARC
  5
A12
330
A02
100
AcDbEntity
  8
Part__Feature
100
AcDbCircle
 10
1.51888
 20
61.1737
 30
3
 40
14.5625
100
AcDbArc
 50
27.6007
 51
67.7627
  0
LINE
  5
A13
330
A02
100
AcDbEntity
  8
Part__Feature
100
AcDbLine
 10
14.4241
 20
67.9206
 30
-2.696e-14
 11
14.4241
 21
67.9206
 31
3
  0
ARC
  5
A14
330
A02
100
AcDbEntity
  8
Part__Feature
100
AcDbCircle
 10
-10
 20
33
 30
-1.68754e-14
 40
45
100
AcDbArc
 50
67.7627
 51
75.4078
  0
LINE
  5
A15
330
A02
100
AcDbEntity
  8
Part__Feature
100
AcDbLine
 10
1.33719
 20
76.5485
 30
-3.36974e-14
 11
1.33719
 21
76.5485
 31
3
  0
ARC
  5
A16
330
A02
100
AcDbEntity
  8
Part__Feature
100
AcDbCircle
 10
-10
 20
33
 30
3
 40
45
100
AcDbArc
 50
67.7627
 51
75.4078
  0
LINE
  5
A17
330
A02
100
AcDbEntity
  8
Part__Feature
100
AcDbLine
 10
7.02996
 20
74.6531
 30
-3.15917e-14
 11
7.02996
 21
74.6531
 31
3
  0
LINE
  5
A18
330
A02
100
AcDbEntity
  8
Part__Feature
100
AcDbLine
 10
1.33719
 20
76.5485
 30
-3.36974e-14
 11
1.33719
 21
76.5485
 31
3
  0
LINE
  5
A19
330
A02
100
AcDbEntity
  8
Part__Feature
100
AcDbLine
 10
1.33719
 20
76.5485
 30
3
 11
1.33719
 21
69.0485
 31
3
  0
LINE
  5
A1A
330
A02
100
AcDbEntity
  8
Part__Feature
100
AcDbLine
 10
1.33719
 20
69.0485
 30
-3.03668e-14
 11
1.33719
 21
69.0485
 31
3
  0
LINE
  5
A1B
330
A02
100
AcDbEntity
  8
Part__Feature
100
AcDbLine
 10
1.33719
 20
76.5485
 30
-3.36974e-14
 11
1.33719
 21
69.0485
 31
-3.03668e-14
  0
ARC
  5
A1C
330
A02
100
AcDbEntity
  8
Part__Feature
100
AcDbCircle
 10
-1.66281
 20
69.0485
 30
-3.10329e-14
 40
3
100
AcDbArc
 50
-103.022
 51
0
  0
LINE
  5
A1D
330
A02
100
AcDbEntity
  8
Part__Feature
100
AcDbLine
 10
1.33719
 20
69.0485
 30
-3.03668e-14
 11
1.33719
 21
69.0485
 31
3
  0
ARC
  5
A1E
330
A02
100
AcDbEntity
  8
Part__Feature
100
AcDbCircle
 10
-1.66281
 20
69.0485
 30
3
 40
3
100
AcDbArc
 50
-103.022
 51
0
  0
LINE
  5
A1F
330
A02
100
AcDbEntity
  8
Part__Feature
100
AcDbLine
 10
-2.3388
 20
66.1256
 30
-2.9885e-14
 11
-2.3388
 21
66.1256
 31
3
  0
ARC
  5
A20
330
A02
100
AcDbEntity
  8
Part__Feature
100
AcDbCircle
 10
-10
 20
33
 30
-1.68754e-14
 40
34
100
AcDbArc
 50
76.9777
 51
-174.443
  0
LINE
  5
A21
330
A02
100
AcDbEntity
  8
Part__Feature
100
AcDbLine
 10
-43.8402
 20
29.7075
 30
-2.29273e-14
 11
-43.8402
 21
29.7075
 31
3
  0
ARC
  5
A22
330
A02
100
AcDbEntity
  8
Part__Feature
100
AcDbCircle
 10
-10
 20
33
 30
3
 40
34
100
AcDbArc
 50
76.9777
 51
-174.443
  0
LINE
  5
A23
330
A02
100
AcDbEntity
  8
Part__Feature
100
AcDbLine
 10
-2.3388
 20
66.1256
 30
-2.9885e-14
 11
-2.3388
 21
66.1256
 31
3
  0
ARC
  5
A24
330
A02
100
AcDbEntity
  8
Part__Feature
100
AcDbCircle
 10
42.0592
 20
38.0651
 30
-7.56529e-15
 40
86.305
100
AcDbArc
 50
-174.443
 51
-152.399
  0
LINE
  5
A25
330
A02
100
AcDbEntity
  8
Part__Feature
100
AcDbLine
 10
-34.4241
 20
-1.92061
 30
-6.79077e-15
 11
-34.4241
 21
-1.92061
 31
3
  0
ARC
  5
A26
330
A02
100
AcDbEntity
  8
Part__Feature
100
AcDbCircle
 10
42.0592
 20
38.0651
 30
3
 40
86.305
100
AcDbArc
 50
-174.443
 51
-152.399
  0
LINE
  5
A27
330
A02
100
AcDbEntity
  8
Part__Feature
100
AcDbLine
 10
-43.8402
 20
29.7075
 30
-2.29273e-14
 11
-43.8402
 21
29.7075
 31
3
  0
ARC
  5
A28
330
A02
100
AcDbEntity
  8
Part__Feature
100
AcDbCircle
 10
-21.5189
 20
4.82629
 30
-6.92146e-15
 40
14.5625
100
AcDbArc
 50
-152.399
 51
-112.237
  0
LINE
  5
A29
330
A02
100
AcDbEntity
  8
Part__Feature
100
AcDbLine
 10
-27.03
 20
-8.6531
 30
-2.15911e-15
 11
-27.03
 21
-8.6531
 31
3
  0
ARC
  5
A2A
330
A02
100
AcDbEntity
  8
Part__Feature
100
AcDbCircle
 10
-21.5189
 20
4.82629
 30
3
 40
14.5625
100
AcDbArc
 50
-152.399
 51
-112.237
  0
LINE
  5
A2B
330
A02
100
AcDbEntity
  8
Part__Feature
100
AcDbLine
 10
-34.4241
 20
-1.92061
 30
-6.79077e-15
 11
-34.4241
 21
-1.92061
 31
3
  0
ARC
  5
A2C
330
A02
100
AcDbEntity
  8
Part__Feature
100
AcDbCircle
 10
-10
 20
33
 30
-1.68754e-14
 40
45
100
AcDbArc
 50
-112.237
 51
-104.592
  0
LINE
  5
A2D
330
A02
100
AcDbEntity
  8
Part__Feature
100
AcDbLine
 10
-21.3372
 20
-10.5485
 30
-5.33523e-17
 11
-21.3372
 21
-10.5485
 31
3
  0
ARC
  5
A2E
330
A02
100
AcDbEntity
  8
Part__Feature
100
AcDbCircle
 10
-10
 20
33
 30
3
 40
45
100
AcDbArc
 50
-112.237
 51
-104.592
  0
LINE
  5
A2F
330
A02
100
AcDbEntity
  8
Part__Feature
100
AcDbLine
 10
-27.03
 20
-8.6531
 30
-2.15911e-15
 11
-27.03
 21
-8.6531
 31
3
  0
LINE
  5
A30
330
A02
100
AcDbEntity
  8
Part__Feature
100
AcDbLine
 10
-21.3372
 20
-10.5485
 30
-5.33523e-17
 11
-21.3372
 21
-10.5485
 31
3
  0
LINE
  5
A31
330
A02
100
AcDbEntity
  8
Part__Feature
100
AcDbLine
 10
-21.3372
 20
-10.5485
 30
3
 11
-21.3372
 21
-3.04846
 31
3
  0
LINE
  5
A32
330
A02
100
AcDbEntity
  8
Part__Feature
100
AcDbLine
 10
-21.3372
 20
-3.04846
 30
-3.38402e-15
 11
-21.3372
 21
-3.04846
 31
3
  0
LINE
  5
A33
330
A02
100
AcDbEntity
  8
Part__Feature
100
AcDbLine
 10
-21.3372
 20
-10.5485
 30
-5.33523e-17
 11
-21.3372
 21
-3.04846
 31
-3.38402e-15
  0
ARC
  5
A34
330
A02
100
AcDbEntity
  8
Part__Feature
100
AcDbCircle
 10
-18.3372
 20
-3.04846
 30
-2.71789e-15
 40
3
100
AcDbArc
 50
76.9777
 51
180
  0
LINE
  5
A35
330
A02
100
AcDbEntity
  8
Part__Feature
100
AcDbLine
 10
-21.3372
 20
-3.04846
 30
-3.38402e-15
 11
-21.3372
 21
-3.04846
 31
3
  0
ARC
  5
A36
330
A02
100
AcDbEntity
  8
Part__Feature
100
AcDbCircle
 10
-18.3372
 20
-3.04846
 30
3
 40
3
100
AcDbArc
 50
76.9777
 51
180
  0
LINE
  5
A37
330
A02
100
AcDbEntity
  8
Part__Feature
100
AcDbLine
 10
-17.6612
 20
-0.125609
 30
-3.86579e-15
 11
-17.6612
 21
-0.125609
 31
3
  0
LINE
  5
A38
330
A02
100
AcDbEntity
  8
Part__Feature
100
AcDbLine
 10
2
 20
54.8174
 30
-2.38997e-14
 11
2
 21
54.8174
 31
3
  0
LINE
  5
A39
330
A02
100
AcDbEntity
  8
Part__Feature
100
AcDbLine
 10
2
 20
54.8174
 30
3
 11
2
 21
47.7309
 31
3
  0
LINE
  5
A3A
330
A02
100
AcDbEntity
  8
Part__Feature
100
AcDbLine
 10
2
 20
47.7309
 30
-2.07527e-14
 11
2
 21
47.7309
 31
3
  0
LINE
  5
A3B
330
A02
100
AcDbEntity
  8
Part__Feature
100
AcDbLine
 10
2
 20
54.8174
 30
-2.38997e-14
 11
2
 21
47.7309
 31
-2.07527e-14
  0
ARC
  5
A3C
330
A02
100
AcDbEntity
  8
Part__Feature
100
AcDbCircle
 10
-10
 20
33
 30
-1.68754e-14
 40
19
100
AcDbArc
 50
39.1667
 51
50.8333
  0
LINE
  5
A3D
330
A02
100
AcDbEntity
  8
Part__Feature
100
AcDbLine
 10
2
 20
47.7309
 30
-2.07527e-14
 11
2
 21
47.7309
 31
3
  0
ARC
  5
A3E
330
A02
100
AcDbEntity
  8
Part__Feature
100
AcDbCircle
 10
-10
 20
33
 30
3
 40
19
100
AcDbArc
 50
39.1667
 51
50.8333
  0
LINE
  5
A3F
330
A02
100
AcDbEntity
  8
Part__Feature
100
AcDbLine
 10
4.73092
 20
45
 30
-1.89335e-14
 11
4.73092
 21
45
 31
3
  0
LINE
  5
A40
330
A02
100
AcDbEntity
  8
Part__Feature
100
AcDbLine
 10
4.73092
 20
45
 30
-1.89335e-14
 11
4.73092
 21
45
 31
3
  0
LINE
  5
A41
330
A02
100
AcDbEntity
  8
Part__Feature
100
AcDbLine
 10
4.73092
 20
45
 30
3
 11
11.8174
 21
45
 31
3
  0
LINE
  5
A42
330
A02
100
AcDbEntity
  8
Part__Feature
100
AcDbLine
 10
11.8174
 20
45
 30
-1.736e-14
 11
11.8174
 21
45
 31
3
  0
LINE
  5
A43
330
A02
100
AcDbEntity
  8
Part__Feature
100
AcDbLine
 10
4.73092
 20
45
 30
-1.89335e-14
 11
11.8174
 21
45
 31
-1.736e-14
  0
ARC
  5
A44
330
A02
100
AcDbEntity
  8
Part__Feature
100
AcDbCircle
 10
11.8174
 20
43
 30
-1.64718e-14
 40
2
100
AcDbArc
 50
24.6243
 51
90
  0
LINE
  5
A45
330
A02
100
AcDbEntity
  8
Part__Feature
100
AcDbLine
 10
11.8174
 20
45
 30
-1.736e-14
 11
11.8174
 21
45
 31
3
  0
ARC
  5
A46
330
A02
100
AcDbEntity
  8
Part__Feature
100
AcDbCircle
 10
11.8174
 20
43
 30
3
 40
2
100
AcDbArc
 50
24.6243
 51
90
  0
LINE
  5
A47
330
A02
100
AcDbEntity
  8
Part__Feature
100
AcDbLine
 10
13.6355
 20
43.8333
 30
-1.64382e-14
 11
13.6355
 21
43.8333
 31
3
  0
ARC
  5
A48
330
A02
100
AcDbEntity
  8
Part__Feature
100
AcDbCircle
 10
-10
 20
33
 30
-1.68754e-14
 40
26
100
AcDbArc
 50
-24.6243
 51
24.6243
  0
LINE
  5
A49
330
A02
100
AcDbEntity
  8
Part__Feature
100
AcDbLine
 10
13.6355
 20
43.8333
 30
-1.64382e-14
 11
13.6355
 21
43.8333
 31
3
  0
ARC
  5
A4A
330
A02
100
AcDbEntity
  8
Part__Feature
100
AcDbCircle
 10
-10
 20
33
 30
3
 40
26
100
AcDbArc
 50
-24.6243
 51
24.6243
  0
LINE
  5
A4B
330
A02
100
AcDbEntity
  8
Part__Feature
100
AcDbLine
 10
13.6355
 20
22.1667
 30
-6.81628e-15
 11
13.6355
 21
22.1667
 31
3
  0
ARC
  5
A4C
330
A02
100
AcDbEntity
  8
Part__Feature
100
AcDbCircle
 10
11.8174
 20
23
 30
-7.59006e-15
 40
2
100
AcDbArc
 50
-90
 51
-24.6243
  0
LINE
  5
A4D
330
A02
100
AcDbEntity
  8
Part__Feature
100
AcDbLine
 10
13.6355
 20
22.1667
 30
-6.81628e-15
 11
13.6355
 21
22.1667
 31
3
  0
ARC
  5
A4E
330
A02
100
AcDbEntity
  8
Part__Feature
100
AcDbCircle
 10
11.8174
 20
23
 30
3
 40
2
100
AcDbArc
 50
-90
 51
-24.6243
  0
LINE
  5
A4F
330
A02
100
AcDbEntity
  8
Part__Feature
100
AcDbLine
 10
11.8174
 20
21
 30
-6.70188e-15
 11
11.8174
 21
21
 31
3
  0
LINE
  5
A50
330
A02
100
AcDbEntity
  8
Part__Feature
100
AcDbLine
 10
4.73092
 20
21
 30
-8.2754e-15
 11
4.73092
 21
21
 31
3
  0
LINE
  5
A51
330
A02
100
AcDbEntity
  8
Part__Feature
100
AcDbLine
 10
4.73092
 20
21
 30
3
 11
11.8174
 21
21
 31
3
  0
LINE
  5
A52
330
A02
100
AcDbEntity
  8
Part__Feature
100
AcDbLine
 10
11.8174
 20
21
 30
-6.70188e-15
 11
11.8174
 21
21
 31
3
  0
LINE
  5
A53
330
A02
100
AcDbEntity
  8
Part__Feature
100
AcDbLine
 10
4.73092
 20
21
 30
-8.2754e-15
 11
11.8174
 21
21
 31
-6.70188e-15
  0
ARC
  5
A54
330
A02
100
AcDbEntity
  8
Part__Feature
100
AcDbCircle
 10
-10
 20
33
 30
-1.68754e-14
 40
19
100
AcDbArc
 50
-50.8333
 51
-39.1667
  0
LINE
  5
A55
330
A02
100
AcDbEntity
  8
Part__Feature
100
AcDbLine
 10
4.73092
 20
21
 30
-8.2754e-15
 11
4.73092
 21
21
 31
3
  0
ARC
  5
A56
330
A02
100
AcDbEntity
  8
Part__Feature
100
AcDbCircle
 10
-10
 20
33
 30
3
 40
19
100
AcDbArc
 50
-50.8333
 51
-39.1667
  0
LINE
  5
A57
330
A02
100
AcDbEntity
  8
Part__Feature
100
AcDbLine
 10
2
 20
18.2691
 30
-7.66901e-15
 11
2
 21
18.2691
 31
3
  0
LINE
  5
A58
330
A02
100
AcDbEntity
  8
Part__Feature
100
AcDbLine
 10
2
 20
11.1826
 30
-4.52197e-15
 11
2
 21
11.1826
 31
3
  0
LINE
  5
A59
330
A02
100
AcDbEntity
  8
Part__Feature
100
AcDbLine
 10
2
 20
11.1826
 30
3
 11
2
 21
18.2691
 31
3
  0
LINE
  5
A5A
330
A02
100
AcDbEntity
  8
Part__Feature
100
AcDbLine
 10
2
 20
18.2691
 30
-7.66901e-15
 11
2
 21
18.2691
 31
3
  0
LINE
  5
A5B
330
A02
100
AcDbEntity
  8
Part__Feature
100
AcDbLine
 10
2
 20
11.1826
 30
-4.52197e-15
 11
2
 21
18.2691
 31
-7.66901e-15
  0
ARC
  5
A5C
330
A02
100
AcDbEntity
  8
Part__Feature
100
AcDbCircle
 10
6.26618e-13
 20
11.1826
 30
-4.96606e-15
 40
2
100
AcDbArc
 50
-65.3757
 51
-5.08889e-14
  0
LINE
  5
A5D
330
A02
100
AcDbEntity
  8
Part__Feature
100
AcDbLine
 10
2
 20
11.1826
 30
-4.52197e-15
 11
2
 21
11.1826
 31
3
  0
ARC
  5
A5E
330
A02
100
AcDbEntity
  8
Part__Feature
100
AcDbCircle
 10
6.25286e-13
 20
11.1826
 30
3
 40
2
100
AcDbArc
 50
-65.3757
 51
-5.08889e-14
  0
LINE
  5
A5F
330
A02
100
AcDbEntity
  8
Part__Feature
100
AcDbLine
 10
0.833333
 20
9.36446
 30
-3.97362e-15
 11
0.833333
 21
9.36446
 31
3
  0
ARC
  5
A60
330
A02
100
AcDbEntity
  8
Part__Feature
100
AcDbCircle
 10
-10
 20
33
 30
-1.68754e-14
 40
26
100
AcDbArc
 50
-114.624
 51
-65.3757
  0
LINE
  5
A61
330
A02
100
AcDbEntity
  8
Part__Feature
100
AcDbLine
 10
0.833333
 20
9.36446
 30
-3.97362e-15
 11
0.833333
 21
9.36446
 31
3
  0
ARC
  5
A62
330
A02
100
AcDbEntity
  8
Part__Feature
100
AcDbCircle
 10
-10
 20
33
 30
3
 40
26
100
AcDbArc
 50
-114.624
 51
-65.3757
  0
LINE
  5
A63
330
A02
100
AcDbEntity
  8
Part__Feature
100
AcDbLine
 10
-20.8333
 20
9.36446
 30
-8.78458e-15
 11
-20.8333
 21
9.36446
 31
3
  0
ARC
  5
A64
330
A02
100
AcDbEntity
  8
Part__Feature
100
AcDbCircle
 10
-20
 20
11.1826
 30
-9.40695e-15
 40
2
100
AcDbArc
 50
180
 51
-114.624
  0
LINE
  5
A65
330
A02
100
AcDbEntity
  8
Part__Feature
100
AcDbLine
 10
-20.8333
 20
9.36446
 30
-8.78458e-15
 11
-20.8333
 21
9.36446
 31
3
  0
ARC
  5
A66
330
A02
100
AcDbEntity
  8
Part__Feature
100
AcDbCircle
 10
-20
 20
11.1826
 30
3
 40
2
100
AcDbArc
 50
180
 51
-114.624
  0
LINE
  5
A67
330
A02
100
AcDbEntity
  8
Part__Feature
100
AcDbLine
 10
-22
 20
11.1826
 30
-9.85104e-15
 11
-22
 21
11.1826
 31
3
  0
LINE
  5
A68
330
A02
100
AcDbEntity
  8
Part__Feature
100
AcDbLine
 10
-22
 20
18.2691
 30
-1.29981e-14
 11
-22
 21
18.2691
 31
3
  0
LINE
  5
A69
330
A02
100
AcDbEntity
  8
Part__Feature
100
AcDbLine
 10
-22
 20
18.2691
 30
3
 11
-22
 21
11.1826
 31
3
  0
LINE
  5
A6A
330
A02
100
AcDbEntity
  8
Part__Feature
100
AcDbLine
 10
-22
 20
11.1826
 30
-9.85104e-15
 11
-22
 21
11.1826
 31
3
  0
LINE
  5
A6B
330
A02
100
AcDbEntity
  8
Part__Feature
100
AcDbLine
 10
-22
 20
18.2691
 30
-1.29981e-14
 11
-22
 21
11.1826
 31
-9.85104e-15
  0
ARC
  5
A6C
330
A02
100
AcDbEntity
  8
Part__Feature
100
AcDbCircle
 10
-10
 20
33
 30
-1.68754e-14
 40
19
100
AcDbArc
 50
-140.833
 51
-129.167
  0
LINE
  5
A6D
330
A02
100
AcDbEntity
  8
Part__Feature
100
AcDbLine
 10
-22
 20
18.2691
 30
-1.29981e-14
 11
-22
 21
18.2691
 31
3
  0
ARC
  5
A6E
330
A02
100
AcDbEntity
  8
Part__Feature
100
AcDbCircle
 10
-10
 20
33
 30
3
 40
19
100
AcDbArc
 50
-140.833
 51
-129.167
  0
LINE
  5
A6F
330
A02
100
AcDbEntity
  8
Part__Feature
100
AcDbLine
 10
-24.7309
 20
21
 30
-1.48172e-14
 11
-24.7309
 21
21
 31
3
  0
LINE
  5
A70
330
A02
100
AcDbEntity
  8
Part__Feature
100
AcDbLine
 10
-31.8174
 20
21
 30
-1.63908e-14
 11
-31.8174
 21
21
 31
3
  0
LINE
  5
A71
330
A02
100
AcDbEntity
  8
Part__Feature
100
AcDbLine
 10
-31.8174
 20
21
 30
3
 11
-24.7309
 21
21
 31
3
  0
LINE
  5
A72
330
A02
100
AcDbEntity
  8
Part__Feature
100
AcDbLine
 10
-24.7309
 20
21
 30
-1.48172e-14
 11
-24.7309
 21
21
 31
3
  0
LINE
  5
A73
330
A02
100
AcDbEntity
  8
Part__Feature
100
AcDbLine
 10
-31.8174
 20
21
 30
-1.63908e-14
 11
-24.7309
 21
21
 31
-1.48172e-14
  0
ARC
  5
A74
330
A02
100
AcDbEntity
  8
Part__Feature
100
AcDbCircle
 10
-31.8174
 20
23
 30
-1.72789e-14
 40
2
100
AcDbArc
 50
-155.376
 51
-90
  0
LINE
  5
A75
330
A02
100
AcDbEntity
  8
Part__Feature
100
AcDbLine
 10
-31.8174
 20
21
 30
-1.63908e-14
 11
-31.8174
 21
21
 31
3
  0
ARC
  5
A76
330
A02
100
AcDbEntity
  8
Part__Feature
100
AcDbCircle
 10
-31.8174
 20
23
 30
3
 40
2
100
AcDbArc
 50
-155.376
 51
-90
  0
LINE
  5
A77
330
A02
100
AcDbEntity
  8
Part__Feature
100
AcDbLine
 10
-33.6355
 20
22.1667
 30
-1.73126e-14
 11
-33.6355
 21
22.1667
 31
3
  0
ARC
  5
A78
330
A02
100
AcDbEntity
  8
Part__Feature
100
AcDbCircle
 10
-10
 20
33
 30
-1.68754e-14
 40
26
100
AcDbArc
 50
155.376
 51
-155.376
  0
LINE
  5
A79
330
A02
100
AcDbEntity
  8
Part__Feature
100
AcDbLine
 10
-33.6355
 20
22.1667
 30
-1.73126e-14
 11
-33.6355
 21
22.1667
 31
3
  0
ARC
  5
A7A
330
A02
100
AcDbEntity
  8
Part__Feature
100
AcDbCircle
 10
-10
 20
33
 30
3
 40
26
100
AcDbArc
 50
155.376
 51
-155.376
  0
LINE
  5
A7B
330
A02
100
AcDbEntity
  8
Part__Feature
100
AcDbLine
 10
-33.6355
 20
43.8333
 30
-2.69345e-14
 11
-33.6355
 21
43.8333
 31
3
  0
ARC
  5
A7C
330
A02
100
AcDbEntity
  8
Part__Feature
100
AcDbCircle
 10
-31.8174
 20
43
 30
-2.61607e-14
 40
2
100
AcDbArc
 50
90
 51
155.376
  0
LINE
  5
A7D
330
A02
100
AcDbEntity
  8
Part__Feature
100
AcDbLine
 10
-33.6355
 20
43.8333
 30
-2.69345e-14
 11
-33.6355
 21
43.8333
 31
3
  0
ARC
  5
A7E
330
A02
100
AcDbEntity
  8
Part__Feature
100
AcDbCircle
 10
-31.8174
 20
43
 30
3
 40
2
100
AcDbArc
 50
90
 51
155.376
  0
LINE
  5
A7F
330
A02
100
AcDbEntity
  8
Part__Feature
100
AcDbLine
 10
-31.8174
 20
45
 30
-2.70489e-14
 11
-31.8174
 21
45
 31
3
  0
LINE
  5
A80
330
A02
100
AcDbEntity
  8
Part__Feature
100
AcDbLine
 10
-31.8174
 20
45
 30
-2.70489e-14
 11
-31.8174
 21
45
 31
3
  0
LINE
  5
A81
330
A02
100
AcDbEntity
  8
Part__Feature
100
AcDbLine
 10
-31.8174
 20
45
 30
3
 11
-24.7309
 21
45
 31
3
  0
LINE
  5
A82
330
A02
100
AcDbEntity
  8
Part__Feature
100
AcDbLine
 10
-24.7309
 20
45
 30
-2.54754e-14
 11
-24.7309
 21
45
 31
3
  0
LINE
  5
A83
330
A02
100
AcDbEntity
  8
Part__Feature
100
AcDbLine
 10
-31.8174
 20
45
 30
-2.70489e-14
 11
-24.7309
 21
45
 31
-2.54754e-14
  0
ARC
  5
A84
330
A02
100
AcDbEntity
  8
Part__Feature
100
AcDbCircle
 10
-10
 20
33
 30
-1.68754e-14
 40
19
100
AcDbArc
 50
129.167
 51
140.833
  0
LINE
  5
A85
330
A02
100
AcDbEntity
  8
Part__Feature
100
AcDbLine
 10
-24.7309
 20
45
 30
-2.54754e-14
 11
-24.7309
 21
45
 31
3
  0
ARC
  5
A86
330
A02
100
AcDbEntity
  8
Part__Feature
100
AcDbCircle
 10
-10
 20
33
 30
3
 40
19
100
AcDbArc
 50
129.167
 51
140.833
  0
LINE
  5
A87
330
A02
100
AcDbEntity
  8
Part__Feature
100
AcDbLine
 10
-22
 20
47.7309
 30
-2.60818e-14
 11
-22
 21
47.7309
 31
3
  0
LINE
  5
A88
330
A02
100
AcDbEntity
  8
Part__Feature
100
AcDbLine
 10
-22
 20
54.8174
 30
-2.92288e-14
 11
-22
 21
54.8174
 31
3
  0
LINE
  5
A89
330
A02
100
AcDbEntity
  8
Part__Feature
100
AcDbLine
 10
-22
 20
54.8174
 30
3
 11
-22
 21
47.7309
 31
3
  0
LINE
  5
A8A
330
A02
100
AcDbEntity
  8
Part__Feature
100
AcDbLine
 10
-22
 20
47.7309
 30
-2.60818e-14
 11
-22
 21
47.7309
 31
3
  0
LINE
  5
A8B
330
A02
100
AcDbEntity
  8
Part__Feature
100
AcDbLine
 10
-22
 20
54.8174
 30
-2.92288e-14
 11
-22
 21
47.7309
 31
-2.60818e-14
  0
ARC
  5
A8C
330
A02
100
AcDbEntity
  8
Part__Feature
100
AcDbCircle
 10
-20
 20
54.8174
 30
-2.87847e-14
 40
2
100
AcDbArc
 50
114.624
 51
180
  0
LINE
  5
A8D
330
A02
100
AcDbEntity
  8
Part__Feature
100
AcDbLine
 10
-22
 20
54.8174
 30
-2.92288e-14
 11
-22
 21
54.8174
 31
3
  0
ARC
  5
A8E
330
A02
100
AcDbEntity
  8
Part__Feature
100
AcDbCircle
 10
-20
 20
54.8174
 30
3
 40
2
100
AcDbArc
 50
114.624
 51
180
  0
LINE
  5
A8F
330
A02
100
AcDbEntity
  8
Part__Feature
100
AcDbLine
 10
-20.8333
 20
56.6355
 30
-2.97772e-14
 11
-20.8333
 21
56.6355
 31
3
  0
ARC
  5
A90
330
A02
100
AcDbEntity
  8
Part__Feature
100
AcDbCircle
 10
-10
 20
33
 30
-1.68754e-14
 40
26
100
AcDbArc
 50
65.3757
 51
114.624
  0
LINE
  5
A91
330
A02
100
AcDbEntity
  8
Part__Feature
100
AcDbLine
 10
-20.8333
 20
56.6355
 30
-2.97772e-14
 11
-20.8333
 21
56.6355
 31
3
  0
ARC
  5
A92
330
A02
100
AcDbEntity
  8
Part__Feature
100
AcDbCircle
 10
-10
 20
33
 30
3
 40
26
100
AcDbArc
 50
65.3757
 51
114.624
  0
LINE
  5
A93
330
A02
100
AcDbEntity
  8
Part__Feature
100
AcDbLine
 10
0.833333
 20
56.6355
 30
-2.49662e-14
 11
0.833333
 21
56.6355
 31
3
  0
ARC
  5
A94
330
A02
100
AcDbEntity
  8
Part__Feature
100
AcDbCircle
 10
6.22052e-13
 20
54.8174
 30
-2.43438e-14
 40
2
100
AcDbArc
 50
0
 51
65.3757
  0
LINE
  5
A95
330
A02
100
AcDbEntity
  8
Part__Feature
100
AcDbLine
 10
0.833333
 20
56.6355
 30
-2.49662e-14
 11
0.833333
 21
56.6355
 31
3
  0
ARC
  5
A96
330
A02
100
AcDbEntity
  8
Part__Feature
100
AcDbCircle
 10
6.2072e-13
 20
54.8174
 30
3
 40
2
100
AcDbArc
 50
0
 51
65.3757
  0
LINE
  5
A97
330
A02
100
AcDbEntity
  8
Part__Feature
100
AcDbLine
 10
2
 20
54.8174
 30
-2.38997e-14
 11
2
 21
54.8174
 31
3
  0
CIRCLE
  5
A98
330
A02
100
AcDbEntity
  8
Part__Feature
100
AcDbCircle
 10
6.5
 20
16.5
 40
1.5
  0
LINE
  5
A99
330
A02
100
AcDbEntity
  8
Part__Feature
100
AcDbLine
 10
8
 20
16.5
 30
-5.55112e-15
 11
8
 21
16.5
 31
3
  0
CIRCLE
  5
A9A
330
A02
100
AcDbEntity
  8
Part__Feature
100
AcDbCircle
 10
6.5
 20
16.5
 40
1.5
  0
LINE
  5
A9B
330
A02
100
AcDbEntity
  8
Part__Feature
100
AcDbLine
 10
8
 20
16.5
 30
-5.55112e-15
 11
8
 21
16.5
 31
3
  0
CIRCLE
  5
A9C
330
A02
100
AcDbEntity
  8
Part__Feature
100
AcDbCircle
 10
-26.5
 20
49.5
 40
1.5
  0
LINE
  5
A9D
330
A02
100
AcDbEntity
  8
Part__Feature
100
AcDbLine
 10
-25
 20
49.5
 30
-2.75335e-14
 11
-25
 21
49.5
 31
3
  0
CIRCLE
  5
A9E
330
A02
100
AcDbEntity
  8
Part__Feature
100
AcDbCircle
 10
-26.5
 20
49.5
 40
1.5
  0
LINE
  5
A9F
330
A02
100
AcDbEntity
  8
Part__Feature
100
AcDbLine
 10
-25
 20
49.5
 30
-2.75335e-14
 11
-25
 21
49.5
 31
3
  0
CIRCLE
  5
AA0
330
A02
100
AcDbEntity
  8
Part__Feature
100
AcDbCircle
 10
-26.5
 20
16.5
 40
1.5
  0
LINE
  5
AA1
330
A02
100
AcDbEntity
  8
Part__Feature
100
AcDbLine
 10
-25
 20
16.5
 30
-1.28786e-14
 11
-25
 21
16.5
 31
3
  0
CIRCLE
  5
AA2
330
A02
100
AcDbEntity
  8
Part__Feature
100
AcDbCircle
 10
-26.5
 20
16.5
 40
1.5
  0
LINE
  5
AA3
330
A02
100
AcDbEntity
  8
Part__Feature
100
AcDbLine
 10
-25
 20
16.5
 30
-1.28786e-14
 11
-25
 21
16.5
 31
3
  0
CIRCLE
  5
AA4
330
A02
100
AcDbEntity
  8
Part__Feature
100
AcDbCircle
 10
6.5
 20
49.5
 40
1.5
  0
LINE
  5
AA5
330
A02
100
AcDbEntity
  8
Part__Feature
100
AcDbLine
 10
8
 20
49.5
 30
-2.02061e-14
 11
8
 21
49.5
 31
3
  0
CIRCLE
  5
AA6
330
A02
100
AcDbEntity
  8
Part__Feature
100
AcDbCircle
 10
6.5
 20
49.5
 40
1.5
  0
LINE
  5
AA7
330
A02
100
AcDbEntity
  8
Part__Feature
100
AcDbLine
 10
8
 20
49.5
 30
-2.02061e-14
 11
8
 21
49.5
 31
3
  0
ARC
  5
AA8
330
A02
100
AcDbEntity
  8
Part__Feature
100
AcDbCircle
 10
-10
 20
33
 30
-1.68754e-14
 40
34
100
AcDbArc
 50
-103.022
 51
5.55713
  0
ARC
  5
AA9
330
A02
100
AcDbEntity
  8
Part__Feature
100
AcDbCircle
 10
-62.0592
 20
27.9349
 30
-2.61855e-14
 40
86.305
100
AcDbArc
 50
5.55713
 51
27.6007
  0
ARC
  5
AAA
330
A02
100
AcDbEntity
  8
Part__Feature
100
AcDbCircle
 10
1.51888
 20
61.1737
 30
-2.68293e-14
 40
14.5625
100
AcDbArc
 50
27.6007
 51
67.7627
  0
ARC
  5
AAB
330
A02
100
AcDbEntity
  8
Part__Feature
100
AcDbCircle
 10
-10
 20
33
 30
-1.68754e-14
 40
45
100
AcDbArc
 50
67.7627
 51
75.4078
  0
LINE
  5
AAC
330
A02
100
AcDbEntity
  8
Part__Feature
100
AcDbLine
 10
1.33719
 20
76.5485
 30
-3.36974e-14
 11
1.33719
 21
69.0485
 31
-3.03668e-14
  0
ARC
  5
AAD
330
A02
100
AcDbEntity
  8
Part__Feature
100
AcDbCircle
 10
-1.66281
 20
69.0485
 30
-3.10329e-14
 40
3
100
AcDbArc
 50
-103.022
 51
0
  0
ARC
  5
AAE
330
A02
100
AcDbEntity
  8
Part__Feature
100
AcDbCircle
 10
-10
 20
33
 30
-1.68754e-14
 40
34
100
AcDbArc
 50
76.9777
 51
-174.443
  0
ARC
  5
AAF
330
A02
100
AcDbEntity
  8
Part__Feature
100
AcDbCircle
 10
42.0592
 20
38.0651
 30
-7.56529e-15
 40
86.305
100
AcDbArc
 50
-174.443
 51
-152.399
  0
ARC
  5
AB0
330
A02
100
AcDbEntity
  8
Part__Feature
100
AcDbCircle
 10
-21.5189
 20
4.82629
 30
-6.92146e-15
 40
14.5625
100
AcDbArc
 50
-152.399
 51
-112.237
  0
ARC
  5
AB1
330
A02
100
AcDbEntity
  8
Part__Feature
100
AcDbCircle
 10
-10
 20
33
 30
-1.68754e-14
 40
45
100
AcDbArc
 50
-112.237
 51
-104.592
  0
LINE
  5
AB2
330
A02
100
AcDbEntity
  8
Part__Feature
100
AcDbLine
 10
-21.3372
 20
-10.5485
 30
-5.33523e-17
 11
-21.3372
 21
-3.04846
 31
-3.38402e-15
  0
ARC
  5
AB3
330
A02
100
AcDbEntity
  8
Part__Feature
100
AcDbCircle
 10
-18.3372
 20
-3.04846
 30
-2.71789e-15
 40
3
100
AcDbArc
 50
76.9777
 51
180
  0
LINE
  5
AB4
330
A02
100
AcDbEntity
  8
Part__Feature
100
AcDbLine
 10
2
 20
54.8174
 30
-2.38997e-14
 11
2
 21
47.7309
 31
-2.07527e-14
  0
ARC
  5
AB5
330
A02
100
AcDbEntity
  8
Part__Feature
100
AcDbCircle
 10
-10
 20
33
 30
-1.68754e-14
 40
19
100
AcDbArc
 50
39.1667
 51
50.8333
  0
LINE
  5
AB6
330
A02
100
AcDbEntity
  8
Part__Feature
100
AcDbLine
 10
4.73092
 20
45
 30
-1.89335e-14
 11
11.8174
 21
45
 31
-1.736e-14
  0
ARC
  5
AB7
330
A02
100
AcDbEntity
  8
Part__Feature
100
AcDbCircle
 10
11.8174
 20
43
 30
-1.64718e-14
 40
2
100
AcDbArc
 50
24.6243
 51
90
  0
ARC
  5
AB8
330
A02
100
AcDbEntity
  8
Part__Feature
100
AcDbCircle
 10
-10
 20
33
 30
-1.68754e-14
 40
26
100
AcDbArc
 50
-24.6243
 51
24.6243
  0
ARC
  5
AB9
330
A02
100
AcDbEntity
  8
Part__Feature
100
AcDbCircle
 10
11.8174
 20
23
 30
-7.59006e-15
 40
2
100
AcDbArc
 50
-90
 51
-24.6243
  0
LINE
  5
ABA
330
A02
100
AcDbEntity
  8
Part__Feature
100
AcDbLine
 10
4.73092
 20
21
 30
-8.2754e-15
 11
11.8174
 21
21
 31
-6.70188e-15
  0
ARC
  5
ABB
330
A02
100
AcDbEntity
  8
Part__Feature
100
AcDbCircle
 10
-10
 20
33
 30
-1.68754e-14
 40
19
100
AcDbArc
 50
-50.8333
 51
-39.1667
  0
LINE
  5
ABC
330
A02
100
AcDbEntity
  8
Part__Feature
100
AcDbLine
 10
2
 20
11.1826
 30
-4.52197e-15
 11
2
 21
18.2691
 31
-7.66901e-15
  0
ARC
  5
ABD
330
A02
100
AcDbEntity
  8
Part__Feature
100
AcDbCircle
 10
6.26618e-13
 20
11.1826
 30
-4.96606e-15
 40
2
100
AcDbArc
 50
-65.3757
 51
-5.08889e-14
  0
ARC
  5
ABE
330
A02
100
AcDbEntity
  8
Part__Feature
100
AcDbCircle
 10
-10
 20
33
 30
-1.68754e-14
 40
26
100
AcDbArc
 50
-114.624
 51
-65.3757
  0
ARC
  5
ABF
330
A02
100
AcDbEntity
  8
Part__Feature
100
AcDbCircle
 10
-20
 20
11.1826
 30
-9.40695e-15
 40
2
100
AcDbArc
 50
180
 51
-114.624
  0
LINE
  5
AC0
330
A02
100
AcDbEntity
  8
Part__Feature
100
AcDbLine
 10
-22
 20
18.2691
 30
-1.29981e-14
 11
-22
 21
11.1826
 31
-9.85104e-15
  0
ARC
  5
AC1
330
A02
100
AcDbEntity
  8
Part__Feature
100
AcDbCircle
 10
-10
 20
33
 30
-1.68754e-14
 40
19
100
AcDbArc
 50
-140.833
 51
-129.167
  0
LINE
  5
AC2
330
A02
100
AcDbEntity
  8
Part__Feature
100
AcDbLine
 10
-31.8174
 20
21
 30
-1.63908e-14
 11
-24.7309
 21
21
 31
-1.48172e-14
  0
ARC
  5
AC3
330
A02
100
AcDbEntity
  8
Part__Feature
100
AcDbCircle
 10
-31.8174
 20
23
 30
-1.72789e-14
 40
2
100
AcDbArc
 50
-155.376
 51
-90
  0
ARC
  5
AC4
330
A02
100
AcDbEntity
  8
Part__Feature
100
AcDbCircle
 10
-10
 20
33
 30
-1.68754e-14
 40
26
100
AcDbArc
 50
155.376
 51
-155.376
  0
ARC
  5
AC5
330
A02
100
AcDbEntity
  8
Part__Feature
100
AcDbCircle
 10
-31.8174
 20
43
 30
-2.61607e-14
 40
2
100
AcDbArc
 50
90
 51
155.376
  0
LINE
  5
AC6
330
A02
100
AcDbEntity
  8
Part__Feature
100
AcDbLine
 10
-31.8174
 20
45
 30
-2.70489e-14
 11
-24.7309
 21
45
 31
-2.54754e-14
  0
ARC
  5
AC7
330
A02
100
AcDbEntity
  8
Part__Feature
100
AcDbCircle
 10
-10
 20
33
 30
-1.68754e-14
 40
19
100
AcDbArc
 50
129.167
 51
140.833
  0
LINE
  5
AC8
330
A02
100
AcDbEntity
  8
Part__Feature
100
AcDbLine
 10
-22
 20
54.8174
 30
-2.92288e-14
 11
-22
 21
47.7309
 31
-2.60818e-14
  0
ARC
  5
AC9
330
A02
100
AcDbEntity
  8
Part__Feature
100
AcDbCircle
 10
-20
 20
54.8174
 30
-2.87847e-14
 40
2
100
AcDbArc
 50
114.624
 51
180
  0
ARC
  5
ACA
330
A02
100
AcDbEntity
  8
Part__Feature
100
AcDbCircle
 10
-10
 20
33
 30
-1.68754e-14
 40
26
100
AcDbArc
 50
65.3757
 51
114.624
  0
ARC
  5
ACB
330
A02
100
AcDbEntity
  8
Part__Feature
100
AcDbCircle
 10
6.22052e-13
 20
54.8174
 30
-2.43438e-14
 40
2
100
AcDbArc
 50
0
 51
65.3757
  0
CIRCLE
  5
ACC
330
A02
100
AcDbEntity
  8
Part__Feature
100
AcDbCircle
 10
6.5
 20
16.5
 40
1.5
  0
CIRCLE
  5
ACD
330
A02
100
AcDbEntity
  8
Part__Feature
100
AcDbCircle
 10
-26.5
 20
49.5
 40
1.5
  0
CIRCLE
  5
ACE
330
A02
100
AcDbEntity
  8
Part__Feature
100
AcDbCircle
 10
-26.5
 20
16.5
 40
1.5
  0
CIRCLE
  5
ACF
330
A02
100
AcDbEntity
  8
Part__Feature
100
AcDbCircle
 10
6.5
 20
49.5
 40
1.5
  0
ARC
  5
AD0
330
A02
100
AcDbEntity
  8
Part__Feature
100
AcDbCircle
 10
-10
 20
33
 30
3
 40
34
100
AcDbArc
 50
-103.022
 51
5.55713
  0
ARC
  5
AD1
330
A02
100
AcDbEntity
  8
Part__Feature
100
AcDbCircle
 10
-62.0592
 20
27.9349
 30
3
 40
86.305
100
AcDbArc
 50
5.55713
 51
27.6007
  0
ARC
  5
AD2
330
A02
100
AcDbEntity
  8
Part__Feature
100
AcDbCircle
 10
1.51888
 20
61.1737
 30
3
 40
14.5625
100
AcDbArc
 50
27.6007
 51
67.7627
  0
ARC
  5
AD3
330
A02
100
AcDbEntity
  8
Part__Feature
100
AcDbCircle
 10
-10
 20
33
 30
3
 40
45
100
AcDbArc
 50
67.7627
 51
75.4078
  0
LINE
  5
AD4
330
A02
100
AcDbEntity
  8
Part__Feature
100
AcDbLine
 10
1.33719
 20
76.5485
 30
3
 11
1.33719
 21
69.0485
 31
3
  0
ARC
  5
AD5
330
A02
100
AcDbEntity
  8
Part__Feature
100
AcDbCircle
 10
-1.66281
 20
69.0485
 30
3
 40
3
100
AcDbArc
 50
-103.022
 51
0
  0
ARC
  5
AD6
330
A02
100
AcDbEntity
  8
Part__Feature
100
AcDbCircle
 10
-10
 20
33
 30
3
 40
34
100
AcDbArc
 50
76.9777
 51
-174.443
  0
ARC
  5
AD7
330
A02
100
AcDbEntity
  8
Part__Feature
100
AcDbCircle
 10
42.0592
 20
38.0651
 30
3
 40
86.305
100
AcDbArc
 50
-174.443
 51
-152.399
  0
ARC
  5
AD8
330
A02
100
AcDbEntity
  8
Part__Feature
100
AcDbCircle
 10
-21.5189
 20
4.82629
 30
3
 40
14.5625
100
AcDbArc
 50
-152.399
 51
-112.237
  0
ARC
  5
AD9
330
A02
100
AcDbEntity
  8
Part__Feature
100
AcDbCircle
 10
-10
 20
33
 30
3
 40
45
100
AcDbArc
 50
-112.237
 51
-104.592
  0
LINE
  5
ADA
330
A02
100
AcDbEntity
  8
Part__Feature
100
AcDbLine
 10
-21.3372
 20
-10.5485
 30
3
 11
-21.3372
 21
-3.04846
 31
3
  0
ARC
  5
ADB
330
A02
100
AcDbEntity
  8
Part__Feature
100
AcDbCircle
 10
-18.3372
 20
-3.04846
 30
3
 40
3
100
AcDbArc
 50
76.9777
 51
180
  0
LINE
  5
ADC
330
A02
100
AcDbEntity
  8
Part__Feature
100
AcDbLine
 10
2
 20
54.8174
 30
3
 11
2
 21
47.7309
 31
3
  0
ARC
  5
ADD
330
A02
100
AcDbEntity
  8
Part__Feature
100
AcDbCircle
 10
-10
 20
33
 30
3
 40
19
100
AcDbArc
 50
39.1667
 51
50.8333
  0
LINE
  5
ADE
330
A02
100
AcDbEntity
  8
Part__Feature
100
AcDbLine
 10
4.73092
 20
45
 30
3
 11
11.8174
 21
45
 31
3
  0
ARC
  5
ADF
330
A02
100
AcDbEntity
  8
Part__Feature
100
AcDbCircle
 10
11.8174
 20
43
 30
3
 40
2
100
AcDbArc
 50
24.6243
 51
90
  0
ARC
  5
AE0
330
A02
100
AcDbEntity
  8
Part__Feature
100
AcDbCircle
 10
-10
 20
33
 30
3
 40
26
100
AcDbArc
 50
-24.6243
 51
24.6243
  0
ARC
  5
AE1
330
A02
100
AcDbEntity
  8
Part__Feature
100
AcDbCircle
 10
11.8174
 20
23
 30
3
 40
2
100
AcDbArc
 50
-90
 51
-24.6243
  0
LINE
  5
AE2
330
A02
100
AcDbEntity
  8
Part__Feature
100
AcDbLine
 10
4.73092
 20
21
 30
3
 11
11.8174
 21
21
 31
3
  0
ARC
  5
AE3
330
A02
100
AcDbEntity
  8
Part__Feature
100
AcDbCircle
 10
-10
 20
33
 30
3
 40
19
100
AcDbArc
 50
-50.8333
 51
-39.1667
  0
LINE
  5
AE4
330
A02
100
AcDbEntity
  8
Part__Feature
100
AcDbLine
 10
2
 20
11.1826
 30
3
 11
2
 21
18.2691
 31
3
  0
ARC
  5
AE5
330
A02
100
AcDbEntity
  8
Part__Feature
100
AcDbCircle
 10
6.25286e-13
 20
11.1826
 30
3
 40
2
100
AcDbArc
 50
-65.3757
 51
-5.08889e-14
  0
ARC
  5
AE6
330
A02
100
AcDbEntity
  8
Part__Feature
100
AcDbCircle
 10
-10
 20
33
 30
3
 40
26
100
AcDbArc
 50
-114.624
 51
-65.3757
  0
ARC
  5
AE7
330
A02
100
AcDbEntity
  8
Part__Feature
100
AcDbCircle
 10
-20
 20
11.1826
 30
3
 40
2
100
AcDbArc
 50
180
 51
-114.624
  0
LINE
  5
AE8
330
A02
100
AcDbEntity
  8
Part__Feature
100
AcDbLine
 10
-22
 20
18.2691
 30
3
 11
-22
 21
11.1826
 31
3
  0
ARC
  5
AE9
330
A02
100
AcDbEntity
  8
Part__Feature
100
AcDbCircle
 10
-10
 20
33
 30
3
 40
19
100
AcDbArc
 50
-140.833
 51
-129.167
  0
LINE
  5
AEA
330
A02
100
AcDbEntity
  8
Part__Feature
100
AcDbLine
 10
-31.8174
 20
21
 30
3
 11
-24.7309
 21
21
 31
3
  0
ARC
  5
AEB
330
A02
100
AcDbEntity
  8
Part__Feature
100
AcDbCircle
 10
-31.8174
 20
23
 30
3
 40
2
100
AcDbArc
 50
-155.376
 51
-90
  0
ARC
  5
AEC
330
A02
100
AcDbEntity
  8
Part__Feature
100
AcDbCircle
 10
-10
 20
33
 30
3
 40
26
100
AcDbArc
 50
155.376
 51
-155.376
  0
ARC
  5
AED
330
A02
100
AcDbEntity
  8
Part__Feature
100
AcDbCircle
 10
-31.8174
 20
43
 30
3
 40
2
100
AcDbArc
 50
90
 51
155.376
  0
LINE
  5
AEE
330
A02
100
AcDbEntity
  8
Part__Feature
100
AcDbLine
 10
-31.8174
 20
45
 30
3
 11
-24.7309
 21
45
 31
3
  0
ARC
  5
AEF
330
A02
100
AcDbEntity
  8
Part__Feature
100
AcDbCircle
 10
-10
 20
33
 30
3
 40
19
100
AcDbArc
 50
129.167
 51
140.833
  0
LINE
  5
AF0
330
A02
100
AcDbEntity
  8
Part__Feature
100
AcDbLine
 10
-22
 20
54.8174
 30
3
 11
-22
 21
47.7309
 31
3
  0
ARC
  5
AF1
330
A02
100
AcDbEntity
  8
Part__Feature
100
AcDbCircle
 10
-20
 20
54.8174
 30
3
 40
2
100
AcDbArc
 50
114.624
 51
180
  0
ARC
  5
AF2
330
A02
100
AcDbEntity
  8
Part__Feature
100
AcDbCircle
 10
-10
 20
33
 30
3
 40
26
100
AcDbArc
 50
65.3757
 51
114.624
  0
ARC
  5
AF3
330
A02
100
AcDbEntity
  8
Part__Feature
100
AcDbCircle
 10
6.2072e-13
 20
54.8174
 30
3
 40
2
100
AcDbArc
 50
0
 51
65.3757
  0
CIRCLE
  5
AF4
330
A02
100
AcDbEntity
  8
Part__Feature
100
AcDbCircle
 10
6.5
 20
16.5
 40
1.5
  0
CIRCLE
  5
AF5
330
A02
100
AcDbEntity
  8
Part__Feature
100
AcDbCircle
 10
-26.5
 20
49.5
 40
1.5
  0
CIRCLE
  5
AF6
330
A02
100
AcDbEntity
  8
Part__Feature
100
AcDbCircle
 10
-26.5
 20
16.5
 40
1.5
  0
CIRCLE
  5
AF7
330
A02
100
AcDbEntity
  8
Part__Feature
100
AcDbCircle
 10
6.5
 20
49.5
 40
1.5
  0
ENDSEC
  0
SECTION
  2
OBJECTS
  0
DICTIONARY
  5
F000
330
0
100
AcDbDictionary
  3
ACAD_GROUP
350
F001
  0
DICTIONARY
  5
F001
330
F000
100
AcDbDictionary
  0
ENDSEC
  0
EOF